<svg width="295" height="599" viewBox="0 0 295 599" fill="none" xmlns="http://www.w3.org/2000/svg">
<path d="M32.8 0.999967C24.9 1.99997 15.9 5.79997 11.1 10.3C6.69999 14.5 2.39999 23.6 0.999985 31.8C0.299985 36.6 -1.48377e-05 113.8 0.199985 304L0.499985 569.5L3.09999 576.2C4.49999 579.8 7.09999 584.6 8.79999 586.7C12.5 591.4 21.4 596.3 28.8 597.9C32.5 598.7 68 599 146.2 599C266.6 599 264 599.1 274.1 594C279.2 591.3 285.5 583.9 288.2 577.1L290.5 571.5L290.8 452.2C291 347.9 291.2 333 292.5 333C294.8 333 294.7 259.5 292.5 258.6C291.3 258.2 291 255.9 291 246.5C291 236.9 291.3 235 292.5 235C293.8 235 294 232.3 294 217C294 201.8 293.8 199 292.5 199C291.3 199 291 187.9 290.8 113.7C290.5 33.5 290.4 28.2 288.6 23.4C283.9 10.3 273.8 2.89997 258 0.999967C248 -0.200033 43.1 -0.200033 32.8 0.999967Z" fill="#F1F1F1"/>
</svg>
