<?xml version="1.0" encoding="UTF-8"?>
<!DOCTYPE svg PUBLIC "-//W3C//DTD SVG 1.1//EN" "http://www.w3.org/Graphics/SVG/1.1/DTD/svg11.dtd">
<svg version="1.1" xmlns="http://www.w3.org/2000/svg" xmlns:xlink="http://www.w3.org/1999/xlink" x="0" y="0" width="156.101" height="40" viewBox="0, 0, 156.101, 40">
  <g id="Layer_1">
    <g>
      <g>
        <g>
          <path d="M146.571,-0 L9.535,-0 C9.168,-0 8.806,-0 8.44,0.002 C8.134,0.004 7.83,0.01 7.521,0.015 C6.85,0.023 6.18,0.082 5.517,0.191 C4.856,0.304 4.215,0.515 3.616,0.818 C3.019,1.124 2.472,1.522 1.998,1.997 C1.52,2.471 1.122,3.018 0.819,3.618 C0.515,4.217 0.305,4.859 0.194,5.521 C0.083,6.183 0.023,6.853 0.015,7.523 C0.006,7.83 0.005,8.138 0,8.444 L0,31.559 C0.005,31.869 0.006,32.17 0.015,32.48 C0.023,33.151 0.083,33.821 0.194,34.482 C0.304,35.145 0.515,35.788 0.819,36.387 C1.122,36.985 1.52,37.53 1.998,38.001 C2.471,38.478 3.017,38.876 3.616,39.18 C4.215,39.484 4.855,39.697 5.517,39.811 C6.18,39.919 6.85,39.978 7.521,39.987 C7.83,39.994 8.134,39.998 8.44,39.998 C8.806,40 9.168,40 9.535,40 L146.571,40 C146.931,40 147.296,40 147.655,39.998 C147.96,39.998 148.272,39.994 148.577,39.987 C149.247,39.979 149.916,39.92 150.577,39.811 C151.241,39.696 151.884,39.483 152.485,39.18 C153.084,38.876 153.63,38.478 154.103,38.001 C154.579,37.528 154.977,36.983 155.284,36.387 C155.586,35.787 155.795,35.145 155.903,34.482 C156.015,33.821 156.077,33.151 156.089,32.48 C156.093,32.17 156.093,31.869 156.093,31.559 C156.101,31.195 156.101,30.834 156.101,30.465 L156.101,9.536 C156.101,9.17 156.101,8.807 156.093,8.444 C156.093,8.138 156.093,7.83 156.089,7.523 C156.077,6.852 156.015,6.183 155.903,5.521 C155.795,4.859 155.586,4.218 155.284,3.618 C154.667,2.415 153.688,1.436 152.485,0.818 C151.884,0.516 151.241,0.304 150.577,0.191 C149.916,0.081 149.247,0.022 148.577,0.015 C148.272,0.01 147.96,0.004 147.655,0.002 C147.296,-0 146.931,-0 146.571,-0 z" fill="#A6A6A6"/>
          <path d="M8.445,39.125 C8.14,39.125 7.843,39.121 7.541,39.114 C6.914,39.106 6.29,39.052 5.671,38.951 C5.095,38.852 4.537,38.667 4.015,38.403 C3.498,38.142 3.026,37.798 2.618,37.387 C2.204,36.98 1.859,36.508 1.597,35.99 C1.333,35.469 1.149,34.91 1.054,34.333 C0.951,33.713 0.896,33.086 0.888,32.458 C0.881,32.247 0.873,31.545 0.873,31.545 L0.873,8.444 C0.873,8.444 0.882,7.753 0.888,7.55 C0.895,6.922 0.951,6.297 1.053,5.678 C1.149,5.099 1.332,4.539 1.597,4.016 C1.857,3.498 2.2,3.026 2.612,2.618 C3.023,2.206 3.496,1.861 4.014,1.595 C4.535,1.332 5.092,1.149 5.667,1.051 C6.288,0.95 6.915,0.895 7.543,0.887 L8.445,0.875 L147.65,0.875 L148.563,0.888 C149.186,0.895 149.807,0.949 150.422,1.05 C151.003,1.149 151.566,1.334 152.093,1.598 C153.131,2.133 153.975,2.979 154.508,4.018 C154.768,4.538 154.949,5.094 155.043,5.667 C155.147,6.291 155.205,6.922 155.217,7.554 C155.22,7.837 155.22,8.142 155.22,8.444 C155.228,8.819 155.228,9.176 155.228,9.536 L155.228,30.465 C155.228,30.828 155.228,31.183 155.22,31.54 C155.22,31.865 155.22,32.163 155.216,32.47 C155.204,33.091 155.147,33.71 155.045,34.323 C154.952,34.904 154.769,35.468 154.505,35.993 C154.241,36.506 153.898,36.973 153.489,37.379 C153.081,37.793 152.608,38.138 152.09,38.401 C151.565,38.667 151.002,38.853 150.422,38.951 C149.804,39.052 149.179,39.107 148.553,39.114 C148.26,39.121 147.953,39.125 147.655,39.125 L146.571,39.127 z" fill="#000000"/>
        </g>
        <g id="_Group_2">
          <g id="_Group_4">
            <path d="M24.769,20.301 C24.791,18.604 25.68,17.037 27.125,16.149 C26.21,14.841 24.73,14.041 23.134,13.991 C21.455,13.815 19.827,14.996 18.971,14.996 C18.099,14.996 16.782,14.008 15.363,14.038 C13.496,14.098 11.798,15.134 10.89,16.765 C8.956,20.114 10.399,25.035 12.251,27.742 C13.178,29.067 14.261,30.547 15.679,30.495 C17.066,30.437 17.584,29.61 19.258,29.61 C20.917,29.61 21.403,30.495 22.849,30.462 C24.338,30.437 25.275,29.13 26.17,27.792 C26.836,26.848 27.348,25.804 27.688,24.7 C25.92,23.952 24.771,22.22 24.769,20.301 z" fill="#FFFFFF" id="_Path_"/>
            <path d="M22.037,12.211 C22.849,11.237 23.249,9.985 23.152,8.72 C21.912,8.85 20.767,9.443 19.944,10.38 C19.132,11.304 18.721,12.513 18.8,13.741 C20.057,13.754 21.25,13.19 22.037,12.211 z" fill="#FFFFFF" id="_Path_2"/>
          </g>
          <g>
            <path d="M46.149,30.496 L46.149,21.356 L46.088,21.356 L42.345,30.401 L40.917,30.401 L37.164,21.356 L37.104,21.356 L37.104,30.496 L35.348,30.496 L35.348,18.078 L37.578,18.078 L41.596,27.88 L41.665,27.88 L45.675,18.078 L47.913,18.078 L47.913,30.496 z" fill="#FFFFFF"/>
            <path d="M49.396,27.923 C49.396,26.34 50.609,25.384 52.761,25.255 L55.24,25.117 L55.24,24.429 C55.24,23.422 54.577,22.853 53.449,22.853 C52.584,22.739 51.77,23.285 51.547,24.128 L49.809,24.128 C49.861,22.492 51.384,21.331 53.501,21.331 C55.661,21.331 57.089,22.51 57.089,24.291 L57.089,30.496 L55.308,30.496 L55.308,29.007 L55.265,29.007 C54.684,30.035 53.589,30.666 52.408,30.651 C51.638,30.727 50.871,30.473 50.298,29.954 C49.724,29.434 49.397,28.697 49.396,27.923 z M55.24,27.105 L55.24,26.408 L53.01,26.546 C51.9,26.615 51.272,27.097 51.272,27.871 C51.272,28.663 51.926,29.18 52.924,29.18 C53.508,29.219 54.083,29.021 54.519,28.631 C54.955,28.24 55.215,27.69 55.24,27.105 z" fill="#FFFFFF"/>
            <path d="M64.893,24.558 C64.725,23.531 63.797,22.805 62.759,22.889 C61.331,22.889 60.384,24.085 60.384,25.97 C60.384,27.897 61.339,29.059 62.776,29.059 C63.8,29.161 64.728,28.449 64.893,27.433 L66.683,27.433 C66.452,29.379 64.712,30.788 62.759,30.608 C60.177,30.608 58.491,28.844 58.491,25.97 C58.491,23.155 60.177,21.331 62.742,21.331 C64.709,21.164 66.45,22.596 66.667,24.558 z" fill="#FFFFFF"/>
            <path d="M78.759,27.14 L74.026,27.14 L72.889,30.496 L70.884,30.496 L75.368,18.078 L77.451,18.078 L81.934,30.496 L79.895,30.496 z M74.516,25.591 L78.268,25.591 L76.419,20.144 L76.367,20.144 z" fill="#FFFFFF"/>
            <path d="M91.617,25.97 C91.617,28.783 90.111,30.591 87.838,30.591 C86.664,30.652 85.557,30.037 84.99,29.007 L84.947,29.007 L84.947,33.491 L83.088,33.491 L83.088,21.442 L84.887,21.442 L84.887,22.948 L84.921,22.948 C85.514,21.924 86.622,21.31 87.804,21.348 C90.102,21.348 91.617,23.164 91.617,25.97 z M89.707,25.97 C89.707,24.137 88.759,22.932 87.314,22.932 C85.894,22.932 84.939,24.162 84.939,25.97 C84.939,27.794 85.894,29.016 87.314,29.016 C88.759,29.016 89.707,27.819 89.707,25.97 z" fill="#FFFFFF"/>
            <path d="M101.582,25.97 C101.582,28.783 100.076,30.591 97.803,30.591 C96.629,30.652 95.522,30.037 94.955,29.007 L94.912,29.007 L94.912,33.491 L93.053,33.491 L93.053,21.442 L94.852,21.442 L94.852,22.948 L94.886,22.948 C95.479,21.924 96.587,21.31 97.769,21.348 C100.067,21.348 101.582,23.164 101.582,25.97 z M99.671,25.97 C99.671,24.137 98.724,22.932 97.279,22.932 C95.859,22.932 94.904,24.162 94.904,25.97 C94.904,27.794 95.859,29.016 97.279,29.016 C98.724,29.016 99.671,27.819 99.671,25.97 z" fill="#FFFFFF"/>
            <path d="M108.167,27.036 C108.305,28.268 109.501,29.076 111.136,29.076 C112.703,29.076 113.83,28.268 113.83,27.157 C113.83,26.193 113.15,25.616 111.541,25.221 L109.931,24.833 C107.651,24.282 106.592,23.216 106.592,21.485 C106.592,19.343 108.459,17.871 111.111,17.871 C113.735,17.871 115.534,19.343 115.594,21.485 L113.718,21.485 C113.606,20.246 112.582,19.498 111.084,19.498 C109.587,19.498 108.563,20.255 108.563,21.356 C108.563,22.234 109.217,22.751 110.818,23.146 L112.186,23.482 C114.734,24.085 115.792,25.108 115.792,26.925 C115.792,29.248 113.942,30.703 110.999,30.703 C108.245,30.703 106.385,29.282 106.265,27.036 z" fill="#FFFFFF"/>
            <path d="M119.803,19.3 L119.803,21.442 L121.525,21.442 L121.525,22.914 L119.803,22.914 L119.803,27.905 C119.803,28.681 120.148,29.042 120.905,29.042 C121.109,29.038 121.313,29.024 121.516,28.999 L121.516,30.462 C121.176,30.525 120.83,30.554 120.484,30.548 C118.651,30.548 117.936,29.859 117.936,28.103 L117.936,22.914 L116.62,22.914 L116.62,21.442 L117.936,21.442 L117.936,19.3 z" fill="#FFFFFF"/>
            <path d="M122.521,25.97 C122.521,23.121 124.199,21.331 126.815,21.331 C129.44,21.331 131.11,23.121 131.11,25.97 C131.11,28.826 129.449,30.608 126.815,30.608 C124.182,30.608 122.521,28.826 122.521,25.97 z M129.216,25.97 C129.216,24.016 128.321,22.862 126.815,22.862 C125.309,22.862 124.414,24.024 124.414,25.97 C124.414,27.932 125.309,29.076 126.815,29.076 C128.321,29.076 129.216,27.932 129.216,25.97 z" fill="#FFFFFF"/>
            <path d="M132.643,21.442 L134.416,21.442 L134.416,22.983 L134.459,22.983 C134.706,21.991 135.615,21.309 136.636,21.348 C136.85,21.347 137.064,21.37 137.273,21.417 L137.273,23.155 C137.003,23.073 136.721,23.035 136.438,23.043 C135.892,23.021 135.363,23.239 134.991,23.639 C134.618,24.039 134.44,24.583 134.501,25.126 L134.501,30.496 L132.643,30.496 z" fill="#FFFFFF"/>
            <path d="M145.84,27.837 C145.59,29.48 143.99,30.608 141.942,30.608 C139.308,30.608 137.673,28.844 137.673,26.013 C137.673,23.173 139.317,21.331 141.864,21.331 C144.369,21.331 145.944,23.052 145.944,25.797 L145.944,26.434 L139.549,26.434 L139.549,26.546 C139.49,27.22 139.722,27.887 140.188,28.378 C140.654,28.868 141.309,29.135 141.985,29.11 C142.887,29.195 143.737,28.677 144.076,27.837 z M139.558,25.135 L144.085,25.135 C144.118,24.529 143.898,23.937 143.476,23.501 C143.055,23.064 142.47,22.824 141.864,22.837 C141.253,22.833 140.665,23.074 140.232,23.505 C139.799,23.937 139.557,24.524 139.558,25.135 z" fill="#FFFFFF"/>
          </g>
        </g>
      </g>
      <g>
        <path d="M37.826,8.731 C38.615,8.674 39.388,8.975 39.932,9.549 C40.476,10.123 40.733,10.911 40.634,11.696 C40.634,13.602 39.604,14.698 37.826,14.698 L35.671,14.698 L35.671,8.731 z M36.598,13.854 L37.723,13.854 C38.286,13.888 38.835,13.666 39.217,13.249 C39.599,12.833 39.773,12.267 39.69,11.708 C39.767,11.152 39.59,10.59 39.21,10.177 C38.829,9.764 38.283,9.543 37.723,9.574 L36.598,9.574 z" fill="#FFFFFF"/>
        <path d="M41.681,12.444 C41.603,11.637 41.99,10.856 42.679,10.429 C43.368,10.001 44.24,10.001 44.929,10.429 C45.618,10.856 46.005,11.637 45.928,12.444 C46.006,13.252 45.62,14.035 44.93,14.463 C44.241,14.892 43.368,14.892 42.678,14.463 C41.989,14.035 41.602,13.252 41.681,12.444 z M45.014,12.444 C45.014,11.468 44.575,10.897 43.806,10.897 C43.033,10.897 42.599,11.468 42.599,12.444 C42.599,13.428 43.033,13.995 43.806,13.995 C44.575,13.995 45.014,13.424 45.014,12.444 z" fill="#FFFFFF"/>
        <path d="M51.573,14.698 L50.651,14.698 L49.721,11.381 L49.65,11.381 L48.724,14.698 L47.811,14.698 L46.569,10.195 L47.471,10.195 L48.277,13.631 L48.344,13.631 L49.27,10.195 L50.122,10.195 L51.048,13.631 L51.118,13.631 L51.921,10.195 L52.81,10.195 z" fill="#FFFFFF"/>
        <path d="M53.854,10.195 L54.709,10.195 L54.709,10.91 L54.775,10.91 C55.006,10.383 55.546,10.061 56.119,10.108 C56.563,10.075 56.998,10.245 57.301,10.571 C57.604,10.896 57.743,11.342 57.678,11.783 L57.678,14.698 L56.789,14.698 L56.789,12.006 C56.789,11.282 56.475,10.922 55.817,10.922 C55.516,10.908 55.224,11.026 55.018,11.246 C54.811,11.465 54.71,11.764 54.742,12.063 L54.742,14.698 L53.854,14.698 z" fill="#FFFFFF"/>
        <path d="M59.094,8.437 L59.982,8.437 L59.982,14.698 L59.094,14.698 z" fill="#FFFFFF"/>
        <path d="M61.218,12.444 C61.141,11.637 61.528,10.856 62.217,10.429 C62.905,10.001 63.777,10.001 64.466,10.429 C65.155,10.856 65.542,11.637 65.465,12.444 C65.544,13.252 65.157,14.035 64.467,14.463 C63.778,14.892 62.905,14.892 62.215,14.463 C61.526,14.035 61.139,13.252 61.218,12.444 z M64.551,12.444 C64.551,11.468 64.112,10.897 63.343,10.897 C62.57,10.897 62.136,11.468 62.136,12.444 C62.136,13.428 62.57,13.995 63.343,13.995 C64.112,13.995 64.551,13.424 64.551,12.444 z" fill="#FFFFFF"/>
        <path d="M66.4,13.424 C66.4,12.614 67.004,12.146 68.075,12.08 L69.295,12.01 L69.295,11.621 C69.295,11.146 68.98,10.877 68.373,10.877 C67.877,10.877 67.533,11.059 67.435,11.377 L66.574,11.377 C66.665,10.604 67.393,10.108 68.414,10.108 C69.543,10.108 70.18,10.67 70.18,11.621 L70.18,14.698 L69.324,14.698 L69.324,14.065 L69.254,14.065 C68.963,14.527 68.447,14.797 67.901,14.772 C67.519,14.812 67.138,14.688 66.852,14.431 C66.566,14.174 66.402,13.809 66.4,13.424 z M69.295,13.04 L69.295,12.663 L68.195,12.733 C67.575,12.775 67.294,12.986 67.294,13.383 C67.294,13.788 67.646,14.024 68.129,14.024 C68.415,14.053 68.701,13.964 68.921,13.779 C69.14,13.593 69.275,13.327 69.295,13.04 z" fill="#FFFFFF"/>
        <path d="M71.348,12.444 C71.348,11.021 72.079,10.12 73.217,10.12 C73.791,10.094 74.329,10.401 74.598,10.91 L74.664,10.91 L74.664,8.437 L75.553,8.437 L75.553,14.698 L74.701,14.698 L74.701,13.986 L74.631,13.986 C74.342,14.491 73.798,14.793 73.217,14.772 C72.071,14.772 71.348,13.871 71.348,12.444 z M72.266,12.444 C72.266,13.399 72.716,13.974 73.469,13.974 C74.218,13.974 74.681,13.391 74.681,12.448 C74.681,11.51 74.213,10.918 73.469,10.918 C72.721,10.918 72.266,11.497 72.266,12.444 z" fill="#FFFFFF"/>
        <path d="M79.23,12.444 C79.152,11.637 79.539,10.856 80.228,10.429 C80.917,10.001 81.789,10.001 82.478,10.429 C83.167,10.856 83.554,11.637 83.477,12.444 C83.556,13.252 83.169,14.035 82.479,14.463 C81.79,14.892 80.917,14.892 80.227,14.463 C79.538,14.035 79.151,13.252 79.23,12.444 z M82.563,12.444 C82.563,11.468 82.124,10.897 81.355,10.897 C80.582,10.897 80.148,11.468 80.148,12.444 C80.148,13.428 80.582,13.995 81.355,13.995 C82.124,13.995 82.563,13.424 82.563,12.444 z" fill="#FFFFFF"/>
        <path d="M84.669,10.195 L85.525,10.195 L85.525,10.91 L85.591,10.91 C85.822,10.383 86.362,10.061 86.935,10.108 C87.379,10.075 87.814,10.245 88.117,10.571 C88.42,10.896 88.559,11.342 88.494,11.783 L88.494,14.698 L87.605,14.698 L87.605,12.006 C87.605,11.282 87.291,10.922 86.633,10.922 C86.332,10.908 86.04,11.026 85.833,11.246 C85.627,11.465 85.526,11.764 85.558,12.063 L85.558,14.698 L84.669,14.698 z" fill="#FFFFFF"/>
        <path d="M93.515,9.074 L93.515,10.215 L94.491,10.215 L94.491,10.964 L93.515,10.964 L93.515,13.279 C93.515,13.751 93.71,13.958 94.152,13.958 C94.265,13.957 94.378,13.95 94.491,13.937 L94.491,14.677 C94.331,14.706 94.169,14.721 94.007,14.723 C93.019,14.723 92.626,14.375 92.626,13.507 L92.626,10.964 L91.911,10.964 L91.911,10.215 L92.626,10.215 L92.626,9.074 z" fill="#FFFFFF"/>
        <path d="M95.705,8.437 L96.585,8.437 L96.585,10.918 L96.656,10.918 C96.898,10.387 97.447,10.065 98.029,10.112 C98.47,10.088 98.899,10.262 99.199,10.586 C99.499,10.911 99.638,11.353 99.58,11.791 L99.58,14.698 L98.69,14.698 L98.69,12.01 C98.69,11.291 98.355,10.926 97.727,10.926 C97.418,10.901 97.113,11.013 96.895,11.233 C96.676,11.453 96.566,11.759 96.593,12.068 L96.593,14.698 L95.705,14.698 z" fill="#FFFFFF"/>
        <path d="M104.761,13.482 C104.512,14.331 103.69,14.88 102.81,14.785 C102.21,14.801 101.633,14.552 101.232,14.104 C100.831,13.656 100.648,13.055 100.73,12.46 C100.65,11.864 100.833,11.262 101.231,10.81 C101.63,10.359 102.204,10.103 102.806,10.108 C104.059,10.108 104.815,10.964 104.815,12.378 L104.815,12.688 L101.635,12.688 L101.635,12.738 C101.607,13.072 101.721,13.402 101.95,13.648 C102.178,13.894 102.499,14.032 102.834,14.028 C103.269,14.08 103.692,13.864 103.906,13.482 z M101.635,12.031 L103.91,12.031 C103.932,11.725 103.825,11.424 103.614,11.202 C103.403,10.98 103.108,10.857 102.801,10.864 C102.491,10.86 102.192,10.982 101.972,11.202 C101.753,11.421 101.631,11.72 101.635,12.031 z" fill="#FFFFFF"/>
      </g>
    </g>
  </g>
</svg>
