<svg width="1024" height="1024" viewBox="0 0 1024 1024" fill="none" xmlns="http://www.w3.org/2000/svg">
<rect width="1024" height="1024" fill="white"/>
<g filter="url(#filter0_i)">
<path d="M406.768 144.978C391.118 150.235 375.615 155.924 360.051 161.438C340.536 168.353 322.655 178.741 305.423 189.765C284.36 203.239 264.273 218.441 247.072 236.822C232.843 252.028 218.558 267.303 205.777 283.701C195.426 296.981 186.78 311.684 178.265 326.275C164.991 349.021 154.383 373.068 146.827 398.328C143.005 411.108 140.014 424.142 136.792 437.096C132.302 455.142 129.271 473.389 129.383 492.073C129.404 495.585 128.75 499.101 128.408 502.616V521.861C128.681 522.936 129.118 523.998 129.2 525.086C130.018 535.901 130.034 546.837 131.719 557.512C134.5 575.124 137.774 592.705 141.931 610.038C145.134 623.39 149.146 636.695 154.347 649.386C162.129 668.372 169.914 687.589 180.185 705.261C192.165 725.873 205.292 746.227 220.673 764.356C244.329 792.241 271.013 817.432 302.489 836.707C316.481 845.275 330.953 853.146 345.635 860.478C356.777 866.043 368.438 870.686 380.156 874.945C391.084 878.916 402.341 882.03 413.565 885.111C417.035 886.064 420.871 885.678 424.497 885.902C424.752 884.629 424.954 884.093 424.955 883.556C424.977 844.508 425.04 805.462 424.828 766.416C424.817 764.388 422.888 761.718 421.078 760.478C416.265 757.18 410.632 755.013 406.036 751.475C393.214 741.599 380.141 731.912 368.302 720.927C354.051 707.703 341.76 692.566 331.969 675.633C326.564 666.286 320.881 657.003 316.561 647.148C310.426 633.147 304.654 618.884 300.19 604.285C296.475 592.137 294.314 579.425 292.472 566.815C290.252 551.614 287.797 536.255 287.834 520.969C287.875 504.735 290.278 488.447 292.475 472.295C294.269 459.102 296.716 445.936 299.885 433.007C304.311 414.954 311.442 397.837 319.593 381.106C332.929 353.728 350.357 329.463 372.755 308.767C386.806 295.784 402.155 284.68 419.227 276.033C423.548 273.846 425.219 270.981 425.187 265.883C424.947 226.46 425.066 187.035 425.074 147.611V140.734C418.29 142.271 412.354 143.103 406.768 144.978Z" fill="url(#paint0_linear)"/>
</g>
<g filter="url(#filter1_i)">
<path d="M585.726 147.591C585.735 187.022 585.857 226.453 585.617 265.883C585.586 270.959 587.387 274.041 591.491 276.18C607.248 284.392 622.039 294.061 634.461 306.816C646.526 319.203 659.125 331.332 669.375 345.144C679.223 358.415 686.88 373.427 694.551 388.167C703.23 404.844 709.255 422.663 713.488 440.992C715.613 450.201 717.193 459.561 718.531 468.921C720.363 481.737 722.631 494.587 723.109 507.482C724.152 535.665 720.334 563.453 713.678 590.829C711.185 601.081 708.818 611.417 705.41 621.379C701.901 631.636 697.703 641.733 692.907 651.457C682.981 671.582 670.99 690.448 656.362 707.56C637.887 729.173 615.563 745.995 590.909 759.83C587.189 761.919 585.723 764.175 585.74 768.454C585.893 805.809 585.825 843.165 585.841 880.52C585.841 882.156 586.024 883.792 586.146 885.81C587.956 885.81 589.475 886.102 590.839 885.765C601.016 883.25 611.425 881.35 621.259 877.848C638.534 871.694 655.874 865.419 672.389 857.524C685.994 851.021 698.802 842.624 711.309 834.105C724.038 825.433 736.511 816.212 748.13 806.119C772.294 785.132 794.134 761.901 811.772 735.003C819.096 723.833 827.005 712.976 833.437 701.31C840.246 688.954 846.003 675.969 851.505 662.957C856.873 650.261 861.89 637.356 866.029 624.218C869.522 613.121 872.036 601.646 874.086 590.178C876.94 574.206 879.105 558.103 881.252 542.016C881.946 536.807 881.713 531.47 881.813 526.189C882.221 504.373 882.307 482.46 878.322 461.007C874.457 440.2 869.5 419.502 863.457 399.223C858.517 382.646 851.751 366.551 844.926 350.615C836.516 330.97 825.909 312.41 813.397 295.076C804.156 282.277 794.271 269.936 784.43 257.584C780.445 252.584 775.918 247.998 771.453 243.404C764.436 236.182 757.761 228.507 750.031 222.128C739.415 213.366 727.905 205.693 716.854 197.45C697.573 183.065 676.428 171.756 654.531 162.255C637.591 154.906 619.563 150.039 601.933 144.328C597.031 142.742 591.828 142.083 585.726 140.776V147.591Z" fill="url(#paint1_linear)"/>
</g>
<path d="M1010.86 0C1010.86 0.002 1010.86 0.004 1010.86 0.007C1009 9.12 1014.89 18.016 1024 19.874V12.901C1024 12.9 1023.99 12.899 1023.99 12.898C1018.73 11.036 1015.97 5.261 1017.84 0H1010.86ZM970.105 0V60.632H1024V53.895H976.842V0H970.105ZM916.211 0V114.527H956.969C958.318 121.141 963.487 126.309 970.102 127.659C979.216 129.52 988.111 123.64 989.972 114.527C991.832 105.412 985.952 96.517 976.838 94.656C967.725 92.796 958.828 98.676 956.969 107.789H922.947V0H916.211ZM963.368 111.158C963.368 105.577 967.892 101.053 973.473 101.053C979.055 101.053 983.579 105.577 983.579 111.158C983.579 116.739 979.055 121.263 973.473 121.263C967.892 121.263 963.368 116.739 963.368 111.158ZM862.315 0V40.758C855.701 42.108 850.532 47.277 849.182 53.891C847.322 63.005 853.202 71.902 862.315 73.762C871.43 75.622 880.326 69.742 882.185 60.628C884.047 51.515 878.166 42.618 869.053 40.758V0H862.315ZM855.579 57.263C855.579 51.682 860.104 47.158 865.685 47.158C871.266 47.158 875.789 51.682 875.789 57.263C875.789 62.844 871.266 67.368 865.685 67.368C860.104 67.368 855.579 62.844 855.579 57.263ZM646.736 0V159.071C648.998 159.946 651.245 160.857 653.474 161.807V6.737H815.158V0H646.736ZM390.164 0C390.928 2.171 390.928 4.536 390.164 6.708C388.312 11.972 382.543 14.738 377.278 12.886C372.013 11.034 369.247 5.265 371.099 0H364.126C362.266 9.116 368.148 18.013 377.263 19.874C386.379 21.734 395.276 15.852 397.137 6.737H592.842V107.789H545.684V73.768C552.298 72.418 557.468 67.249 558.817 60.635C560.677 51.521 554.798 42.625 545.684 40.764C536.57 38.904 527.674 44.784 525.814 53.898C523.953 63.012 529.834 71.908 538.947 73.768V114.527H599.579V0H390.164ZM532.211 57.263C532.211 51.682 536.735 47.158 542.316 47.158C547.897 47.158 552.421 51.682 552.421 57.263C552.421 62.844 547.897 67.368 542.316 67.368C536.735 67.368 532.211 62.844 532.211 57.263ZM323.368 0V161.684H215.579V271.647C217.794 269.024 220.047 266.431 222.316 263.852V168.421H330.106V0H323.368ZM269.473 0V107.789H181.558C180.208 101.175 175.038 96.006 168.424 94.656C159.311 92.796 150.414 98.676 148.554 107.789C146.694 116.904 152.574 125.799 161.688 127.659C170.801 129.52 179.698 123.64 181.558 114.527H276.21V0H269.473ZM154.948 111.158C154.948 105.577 159.472 101.053 165.053 101.053C170.634 101.053 175.158 105.577 175.158 111.158C175.158 116.739 170.634 121.263 165.053 121.263C159.472 121.263 154.948 116.739 154.948 111.158ZM161.684 0V6.737H215.579V53.895H181.558C180.208 47.28 175.038 42.112 168.424 40.762C159.311 38.901 150.414 44.781 148.554 53.895C146.694 63.008 152.574 71.904 161.688 73.766C170.801 75.626 179.698 69.745 181.558 60.632H222.316V0H161.684ZM154.948 57.263C154.948 51.682 159.472 47.158 165.053 47.158C170.634 47.158 175.158 51.682 175.158 57.263C175.158 62.844 170.634 67.368 165.053 67.368C159.472 67.368 154.948 62.844 154.948 57.263ZM107.789 0V136.724L28.935 215.58H0V222.316H31.697L114.527 139.486V134.063V0H107.789ZM53.895 0V53.895H0V60.632H57.263H60.632V0H53.895ZM12.901 0C13.676 2.185 13.676 4.569 12.901 6.753C11.036 12.014 5.26 14.765 0 12.901V19.874C2.17 20.304 4.404 20.304 6.574 19.874C15.735 18.058 21.689 9.161 19.874 0H12.901ZM364.134 53.895C362.272 63.008 368.153 71.904 377.266 73.766C386.381 75.626 395.276 69.745 397.137 60.632H485.052V202.442C478.438 203.792 473.27 208.962 471.919 215.576C470.059 224.689 475.939 233.586 485.052 235.446C494.167 237.306 503.062 231.426 504.922 222.312C506.783 213.199 500.903 204.302 491.79 202.442V53.895H397.137C395.787 47.28 390.618 42.112 384.003 40.762C382.867 40.53 381.733 40.418 380.616 40.418C372.779 40.417 365.762 45.917 364.134 53.895ZM370.526 57.263C370.526 51.682 375.051 47.158 380.632 47.158C386.212 47.158 390.737 51.682 390.737 57.263C390.737 62.844 386.212 67.368 380.632 67.368C375.051 67.368 370.526 62.844 370.526 57.263ZM478.316 218.947C478.316 213.366 482.84 208.842 488.421 208.842C494.002 208.842 498.526 213.366 498.526 218.947C498.526 224.528 494.002 229.052 488.421 229.052C482.84 229.052 478.316 224.528 478.316 218.947ZM795.287 53.898C793.427 63.012 799.308 71.908 808.42 73.768V276.211H1024V269.473H815.158V73.768C821.772 72.418 826.942 67.249 828.291 60.635C830.151 51.521 824.271 42.625 815.158 40.764C814.021 40.532 812.888 40.421 811.772 40.421C803.934 40.421 796.916 45.92 795.287 53.898ZM801.685 57.263C801.685 51.682 806.209 47.158 811.789 47.158C817.37 47.158 821.894 51.682 821.894 57.263C821.894 62.844 817.37 67.368 811.789 67.368C806.209 67.368 801.685 62.844 801.685 57.263ZM741.393 53.898C739.532 63.012 745.412 71.908 754.527 73.768V226.091C756.831 228.226 759.067 230.447 761.264 232.715V73.768C767.877 72.418 773.047 67.249 774.397 60.635C776.257 51.521 770.377 42.625 761.264 40.764C760.128 40.532 758.994 40.421 757.878 40.421C750.04 40.421 743.021 45.92 741.393 53.898ZM747.789 57.263C747.789 51.682 752.314 47.158 757.894 47.158C763.475 47.158 768 51.682 768 57.263C768 62.844 763.475 67.368 757.894 67.368C752.314 67.368 747.789 62.844 747.789 57.263ZM687.498 53.898C685.638 63.012 691.518 71.908 700.632 73.768V186.317C702.897 187.751 705.144 189.22 707.368 190.725V73.768C713.983 72.418 719.151 67.249 720.502 60.635C722.362 51.521 716.483 42.625 707.368 40.764C706.232 40.532 705.099 40.421 703.982 40.421C696.146 40.421 689.127 45.92 687.498 53.898ZM693.895 57.263C693.895 51.682 698.419 47.158 704 47.158C709.581 47.158 714.106 51.682 714.106 57.263C714.106 62.844 709.581 67.368 704 67.368C698.419 67.368 693.895 62.844 693.895 57.263ZM40.757 107.789H28.935L0 136.758V146.223L31.697 114.527H40.757C42.108 121.141 47.277 126.309 53.891 127.659C63.005 129.52 71.901 123.64 73.761 114.527C75.622 105.412 69.742 96.517 60.628 94.656C59.491 94.424 58.358 94.313 57.242 94.313C49.405 94.313 42.387 99.812 40.757 107.789ZM47.157 111.158C47.157 105.577 51.682 101.053 57.263 101.053C62.844 101.053 67.369 105.577 67.369 111.158C67.369 116.739 62.844 121.263 57.263 121.263C51.682 121.263 47.157 116.739 47.157 111.158ZM849.182 107.793C847.322 116.907 853.202 125.803 862.315 127.663V222.316H1024V215.58H869.053V127.663C875.667 126.313 880.836 121.144 882.185 114.53C884.047 105.416 878.166 96.52 869.053 94.66C867.916 94.428 866.783 94.316 865.667 94.316C857.83 94.316 850.811 99.816 849.182 107.793ZM855.579 111.158C855.579 105.577 860.104 101.053 865.685 101.053C871.266 101.053 875.789 105.577 875.789 111.158C875.789 116.739 871.266 121.263 865.685 121.263C860.104 121.263 855.579 116.739 855.579 111.158ZM418.025 107.793C416.164 116.907 422.044 125.803 431.158 127.663V269.473H424.836C424.149 272.441 422.409 274.422 419.227 276.033C419.112 276.091 419 276.152 418.885 276.211H437.894V127.663C444.509 126.313 449.678 121.144 451.029 114.53C452.889 105.416 447.008 96.52 437.894 94.66C436.758 94.428 435.625 94.316 434.508 94.316C426.672 94.316 419.653 99.816 418.025 107.793ZM424.421 111.158C424.421 105.577 428.945 101.053 434.526 101.053C440.107 101.053 444.632 105.577 444.632 111.158C444.632 116.739 440.107 121.263 434.526 121.263C428.945 121.263 424.421 116.739 424.421 111.158ZM364.13 107.793C362.27 116.907 368.15 125.803 377.263 127.663V155.297C379.508 154.494 381.753 153.691 384 152.892V127.663C390.614 126.313 395.783 121.144 397.133 114.53C398.993 105.416 393.114 96.52 384 94.66C382.864 94.428 381.73 94.316 380.614 94.316C372.777 94.316 365.758 99.816 364.13 107.793ZM370.526 111.158C370.526 105.577 375.051 101.053 380.632 101.053C386.212 101.053 390.737 105.577 390.737 111.158C390.737 116.739 386.212 121.263 380.632 121.263C375.051 121.263 370.526 116.739 370.526 111.158ZM999.04 161.684H936.084C934.735 155.07 929.565 149.901 922.951 148.551C913.837 146.691 904.941 152.57 903.08 161.684C901.22 170.798 907.101 179.695 916.214 181.555C925.328 183.415 934.223 177.535 936.084 168.421H1001.8L1024 146.223V136.724L999.04 161.684ZM909.473 165.053C909.473 159.472 913.998 154.947 919.579 154.947C925.16 154.947 929.685 159.472 929.685 165.053C929.685 170.633 925.16 175.158 919.579 175.158C913.998 175.158 909.473 170.633 909.473 165.053ZM525.818 161.684C523.957 170.798 529.837 179.695 538.951 181.555C548.064 183.415 556.961 177.535 558.822 168.421H585.742C585.739 166.175 585.738 163.929 585.736 161.684H558.822C557.471 155.07 552.302 149.901 545.687 148.551C544.551 148.319 543.418 148.208 542.301 148.208C534.465 148.207 527.446 153.707 525.818 161.684ZM532.211 165.053C532.211 159.472 536.735 154.947 542.316 154.947C547.897 154.947 552.421 159.472 552.421 165.053C552.421 170.633 547.897 175.158 542.316 175.158C536.735 175.158 532.211 170.633 532.211 165.053ZM148.55 161.688C146.69 170.801 152.571 179.697 161.684 181.558V325.356L0 487.04V707.368H94.653C96.003 713.982 101.172 719.151 107.786 720.502C116.9 722.362 125.796 716.483 127.656 707.368C129.516 698.255 123.637 689.358 114.523 687.498C105.409 685.638 96.512 691.518 94.653 700.632H6.736V489.802L168.421 328.118V181.558C175.036 180.208 180.204 175.039 181.554 168.424C183.415 159.311 177.535 150.415 168.421 148.554C167.285 148.322 166.151 148.21 165.035 148.21C157.197 148.21 150.179 153.71 148.55 161.688ZM154.948 165.053C154.948 159.472 159.472 154.947 165.053 154.947C170.634 154.947 175.158 159.472 175.158 165.053C175.158 170.633 170.634 175.158 165.053 175.158C159.472 175.158 154.948 170.633 154.948 165.053ZM101.053 704C101.053 698.419 105.577 693.894 111.158 693.894C116.739 693.894 121.263 698.419 121.263 704C121.263 709.581 116.739 714.106 111.158 714.106C105.577 714.106 101.053 709.581 101.053 704ZM94.657 215.582C92.796 224.697 98.676 233.592 107.789 235.452V298.408L0 406.198V415.697L114.527 301.17V235.452C121.141 234.102 126.31 228.934 127.66 222.32C129.52 213.205 123.64 204.31 114.527 202.449C113.39 202.217 112.257 202.106 111.141 202.106C103.303 202.106 96.285 207.605 94.657 215.582ZM101.053 218.947C101.053 213.366 105.577 208.842 111.158 208.842C116.739 208.842 121.263 213.366 121.263 218.947C121.263 224.528 116.739 229.052 111.158 229.052C105.577 229.052 101.053 224.528 101.053 218.947ZM569.263 215.58L461.473 323.368H397.137C395.787 316.754 390.618 311.585 384.003 310.235C374.89 308.375 365.994 314.255 364.134 323.368C362.272 332.482 368.153 341.379 377.266 343.239C386.381 345.099 395.276 339.219 397.137 330.105H464.27L572.059 222.316H585.75C585.751 220.07 585.755 217.825 585.756 215.58H569.263ZM370.526 326.737C370.526 321.156 375.051 316.632 380.632 316.632C386.212 316.632 390.737 321.156 390.737 326.737C390.737 332.318 386.212 336.842 380.632 336.842C375.051 336.842 370.526 332.318 370.526 326.737ZM269.473 215.58V215.796C269.561 215.724 269.647 215.651 269.734 215.58H269.473ZM40.757 269.473H0V276.211H40.757C42.108 282.825 47.277 287.994 53.891 289.344C63.005 291.204 71.901 285.324 73.761 276.211C75.622 267.096 69.742 258.201 60.628 256.341C59.491 256.109 58.358 255.997 57.242 255.997C49.405 255.997 42.387 261.496 40.757 269.473ZM47.157 272.842C47.157 267.261 51.682 262.737 57.263 262.737C62.844 262.737 67.369 267.261 67.369 272.842C67.369 278.423 62.844 282.947 57.263 282.947C51.682 282.947 47.157 278.423 47.157 272.842ZM485.052 375.882V633.6C478.438 634.95 473.27 640.119 471.919 646.734C470.059 655.847 475.939 664.743 485.052 666.604C494.167 668.464 503.062 662.584 504.922 653.471C506.783 644.357 500.903 635.46 491.79 633.6V378.644L593.298 277.136C592.696 276.816 592.096 276.495 591.491 276.18C589.9 275.35 588.663 274.373 587.736 273.198L485.052 375.882ZM478.316 650.106C478.316 644.524 482.84 640 488.421 640C494.002 640 498.526 644.524 498.526 650.106C498.526 655.687 494.002 660.211 488.421 660.211C482.84 660.211 478.316 655.687 478.316 650.106ZM0 310.232V317.204C2.171 316.441 4.536 316.441 6.707 317.204C11.972 319.056 14.738 324.826 12.886 330.09C11.034 335.355 5.265 338.122 0 336.27V343.242C1.11 343.469 2.239 343.583 3.372 343.583C12.673 343.58 20.212 336.038 20.21 326.737C20.206 325.655 20.097 324.576 19.885 323.515C18.284 315.47 11.221 309.903 3.32 309.903C2.225 309.903 1.114 310.01 0 310.232ZM1010.86 323.368H831.465C832.716 325.598 833.94 327.843 835.133 330.105H1010.86C1012.21 336.721 1017.38 341.893 1024 343.242V336.27C1021.11 335.253 1018.84 332.98 1017.82 330.09C1015.97 324.826 1018.74 319.056 1024 317.204V310.232C1017.38 311.581 1012.21 316.752 1010.86 323.368ZM621.778 323.368L538.947 406.198V741.39C532.333 742.739 527.164 747.908 525.814 754.523C523.953 763.636 529.834 772.533 538.947 774.394C548.06 776.254 556.957 770.373 558.817 761.259C560.677 752.147 554.798 743.25 545.684 741.39V408.96L624.539 330.105H656.905C654.844 327.832 652.738 325.594 650.614 323.368H621.778ZM532.211 757.894C532.211 752.313 536.735 747.789 542.316 747.789C547.897 747.789 552.421 752.313 552.421 757.894C552.421 763.475 547.897 768 542.316 768C536.735 768 532.211 763.475 532.211 757.894ZM323.368 373.679V485.053H290.749C290.455 487.297 290.173 489.542 289.904 491.789H330.106V361.626C327.758 365.567 325.518 369.59 323.368 373.679ZM956.969 377.264H855.886C856.745 379.502 857.581 381.747 858.396 384H956.969C958.318 390.614 963.487 395.783 970.102 397.133C979.216 398.994 988.111 393.114 989.973 384C991.832 374.886 985.952 365.99 976.838 364.13C975.702 363.898 974.569 363.786 973.452 363.786C965.616 363.786 958.597 369.286 956.969 377.264ZM963.368 380.632C963.368 375.051 967.892 370.526 973.473 370.526C979.055 370.526 983.579 375.051 983.579 380.632C983.579 386.212 979.055 390.737 973.473 390.737C967.892 390.737 963.368 386.212 963.368 380.632ZM633.607 377.264C631.746 386.377 637.627 395.273 646.74 397.133C655.853 398.994 664.75 393.114 666.61 384H692.383C691.214 381.754 690.041 379.506 688.855 377.264H666.61C665.261 370.649 660.091 365.48 653.477 364.13C652.341 363.898 651.208 363.786 650.091 363.786C642.254 363.786 635.235 369.286 633.607 377.264ZM640 380.632C640 375.051 644.524 370.526 650.105 370.526C655.687 370.526 660.211 375.051 660.211 380.632C660.211 386.212 655.687 390.737 650.105 390.737C644.524 390.737 640 386.212 640 380.632ZM418.021 377.264H377.263V538.948H289.347C289.152 537.993 288.869 537.073 288.523 536.186C288.795 539.353 289.134 542.52 289.518 545.684H384V384H418.021C419.371 390.614 424.54 395.783 431.154 397.133C440.268 398.994 449.165 393.114 451.025 384C452.884 374.886 447.005 365.99 437.891 364.13C436.755 363.898 435.622 363.786 434.505 363.786C426.668 363.786 419.65 369.286 418.021 377.264ZM424.421 380.632C424.421 375.051 428.945 370.526 434.526 370.526C440.107 370.526 444.632 375.051 444.632 380.632C444.632 386.212 440.107 390.737 434.526 390.737C428.945 390.737 424.421 386.212 424.421 380.632ZM970.105 460.092V700.632H882.189C880.84 694.018 875.67 688.849 869.055 687.498C859.943 685.638 851.046 691.518 849.185 700.632C847.325 709.745 853.205 718.642 862.32 720.502C871.432 722.362 880.329 716.483 882.189 707.368H976.842V462.854L1024 415.697V406.198L970.105 460.092ZM855.579 704C855.579 698.419 860.104 693.894 865.685 693.894C871.266 693.894 875.789 698.419 875.789 704C875.789 709.581 871.266 714.106 865.685 714.106C860.104 714.106 855.579 709.581 855.579 704ZM903.074 431.157H871.997C872.529 433.401 873.057 435.646 873.564 437.895H903.074C904.423 444.509 909.593 449.678 916.207 451.029C925.321 452.889 934.217 447.008 936.077 437.895C937.938 428.781 932.058 419.885 922.945 418.025C921.808 417.793 920.675 417.681 919.558 417.681C911.721 417.681 904.702 423.18 903.074 431.157ZM909.473 434.526C909.473 428.945 913.998 424.421 919.579 424.421C925.16 424.421 929.685 428.945 929.685 434.526C929.685 440.107 925.16 444.632 919.579 444.632C913.998 444.632 909.473 440.107 909.473 434.526ZM579.712 431.157C577.851 440.272 583.731 449.168 592.845 451.029C601.959 452.889 610.855 447.008 612.715 437.895H712.752C712.204 435.64 711.628 433.395 711.022 431.157H612.715C611.365 424.543 606.196 419.375 599.582 418.025C598.445 417.793 597.312 417.681 596.196 417.681C588.359 417.681 581.34 423.18 579.712 431.157ZM586.105 434.526C586.105 428.945 590.629 424.421 596.211 424.421C601.791 424.421 606.316 428.945 606.316 434.526C606.316 440.107 601.791 444.632 596.211 444.632C590.629 444.632 586.105 440.107 586.105 434.526ZM418.025 431.161C416.164 440.275 422.044 449.172 431.158 451.032V707.368H485.052V741.39C478.438 742.739 473.27 747.908 471.919 754.523C470.059 763.636 475.939 772.533 485.052 774.394C494.167 776.254 503.062 770.373 504.922 761.259C506.783 752.147 500.903 743.25 491.79 741.39V700.632H437.894V451.032C444.509 449.682 449.678 444.513 451.029 437.898C452.889 428.784 447.008 419.888 437.894 418.028C436.758 417.796 435.625 417.685 434.508 417.685C426.672 417.685 419.653 423.184 418.025 431.161ZM424.421 434.526C424.421 428.945 428.945 424.421 434.526 424.421C440.107 424.421 444.632 428.945 444.632 434.526C444.632 440.107 440.107 444.632 434.526 444.632C428.945 444.632 424.421 440.107 424.421 434.526ZM478.316 757.894C478.316 752.313 482.84 747.789 488.421 747.789C494.002 747.789 498.526 752.313 498.526 757.894C498.526 763.475 494.002 768 488.421 768C482.84 768 478.316 763.475 478.316 757.894ZM53.895 513.987V525.81C47.281 527.16 42.111 532.33 40.761 538.944C38.901 548.057 44.781 556.954 53.895 558.814C63.008 560.675 71.905 554.795 73.765 545.681C75.625 536.567 69.745 527.671 60.632 525.81V516.749L135.685 441.695C136.044 440.161 136.41 438.627 136.792 437.096C137.452 434.443 138.101 431.787 138.75 429.132L53.895 513.987ZM47.157 542.315C47.157 536.735 51.682 532.211 57.263 532.211C62.844 532.211 67.369 536.735 67.369 542.315C67.369 547.896 62.844 552.421 57.263 552.421C51.682 552.421 47.157 547.896 47.157 542.315ZM579.712 485.053C577.851 494.166 583.731 503.063 592.845 504.923C601.959 506.784 610.855 500.903 612.715 491.789H721.782C721.508 489.542 721.21 487.297 720.895 485.053H612.715C611.365 478.439 606.196 473.269 599.582 471.919C598.445 471.687 597.312 471.576 596.196 471.576C588.359 471.576 581.34 477.075 579.712 485.053ZM586.105 488.421C586.105 482.84 590.629 478.316 596.211 478.316C601.791 478.316 606.316 482.84 606.316 488.421C606.316 494.002 601.791 498.526 596.211 498.526C590.629 498.526 586.105 494.002 586.105 488.421ZM881.718 493.572C881.905 492.992 882.065 492.4 882.189 491.789H916.211V633.6C909.597 634.95 904.428 640.119 903.077 646.734C901.217 655.847 907.096 664.743 916.211 666.604C925.324 668.464 934.221 662.584 936.081 653.471C937.941 644.357 932.061 635.46 922.947 633.6V485.053H882.189C881.929 483.773 881.52 482.55 880.991 481.395C881.326 485.445 881.561 489.506 881.718 493.572ZM909.473 650.106C909.473 644.524 913.998 640 919.579 640C925.16 640 929.685 644.524 929.685 650.106C929.685 655.687 925.16 660.211 919.579 660.211C913.998 660.211 909.473 655.687 909.473 650.106ZM94.659 538.948C92.799 548.06 98.68 556.957 107.793 558.817C116.906 560.677 125.803 554.798 127.663 545.684H130.419C130.255 543.442 130.124 541.196 130.003 538.948H127.663C126.313 532.333 121.144 527.164 114.529 525.813C113.394 525.581 112.26 525.47 111.144 525.47C103.307 525.469 96.288 530.97 94.659 538.948ZM101.053 542.315C101.053 536.735 105.577 532.211 111.158 532.211C116.739 532.211 121.263 536.735 121.263 542.315C121.263 547.896 116.739 552.421 111.158 552.421C105.577 552.421 101.053 547.896 101.053 542.315ZM633.604 538.951C631.743 548.065 637.623 556.961 646.736 558.822V718.03C649.031 715.696 651.28 713.307 653.474 710.85V558.822C660.088 557.471 665.257 552.302 666.607 545.688C668.468 536.574 662.588 527.678 653.474 525.818C652.337 525.586 651.204 525.474 650.088 525.474C642.251 525.474 635.232 530.974 633.604 538.951ZM640 542.315C640 536.735 644.524 532.211 650.105 532.211C655.687 532.211 660.211 536.735 660.211 542.315C660.211 547.896 655.687 552.421 650.105 552.421C644.524 552.421 640 547.896 640 542.315ZM579.709 538.951C577.849 548.065 583.728 556.961 592.842 558.822V758.725C595.107 757.432 597.355 756.12 599.579 754.774V558.822C606.193 557.471 611.362 552.302 612.713 545.688C614.572 536.574 608.693 527.678 599.579 525.818C598.443 525.586 597.309 525.474 596.193 525.474C588.356 525.474 581.337 530.974 579.709 538.951ZM586.105 542.315C586.105 536.735 590.629 532.211 596.211 532.211C601.791 532.211 606.316 536.735 606.316 542.315C606.316 547.896 601.791 552.421 596.211 552.421C590.629 552.421 586.105 547.896 586.105 542.315ZM700.632 538.948V634.182C702.339 629.951 703.939 625.681 705.41 621.379C706.107 619.346 706.75 617.293 707.368 615.233V545.684H721.697C721.936 543.441 722.157 541.196 722.344 538.948H700.632ZM310.238 592.841C308.378 601.956 314.258 610.851 323.372 612.712C332.485 614.572 341.382 608.692 343.242 599.579H377.263V728.837C379.482 730.71 381.734 732.548 384 734.37V592.841H343.242C341.892 586.227 336.723 581.059 330.109 579.709C328.973 579.477 327.839 579.365 326.723 579.365C318.885 579.365 311.866 584.865 310.238 592.841ZM316.632 596.211C316.632 590.63 321.156 586.106 326.737 586.106C332.318 586.106 336.842 590.63 336.842 596.211C336.842 601.791 332.318 606.315 326.737 606.315C321.156 606.315 316.632 601.791 316.632 596.211ZM40.765 592.841C38.904 601.956 44.785 610.851 53.898 612.712C63.012 614.572 71.908 608.692 73.769 599.579H139.542C139.051 597.337 138.572 595.091 138.107 592.841H73.769C72.419 586.227 67.249 581.059 60.635 579.709C59.498 579.477 58.365 579.365 57.249 579.365C49.412 579.365 42.393 584.865 40.765 592.841ZM47.157 596.211C47.157 590.63 51.682 586.106 57.263 586.106C62.844 586.106 67.369 590.63 67.369 596.211C67.369 601.791 62.844 606.315 57.263 606.315C51.682 606.315 47.157 601.791 47.157 596.211ZM866.029 624.218C864.859 627.93 863.613 631.621 862.315 635.296V646.736H858.079C857.209 648.988 856.328 651.235 855.425 653.474H869.053V613.597C868.128 617.167 867.132 620.713 866.029 624.218ZM40.765 646.736C38.904 655.85 44.785 664.747 53.898 666.607C63.012 668.468 71.908 662.587 73.769 653.474H136.724L170.9 687.649C168.143 681.936 165.545 676.133 163.037 670.287L139.486 646.736H73.769C72.419 640.123 67.249 634.953 60.635 633.603C59.498 633.371 58.365 633.26 57.249 633.26C49.412 633.26 42.393 638.759 40.765 646.736ZM47.157 650.106C47.157 644.524 51.682 640 57.263 640C62.844 640 67.369 644.524 67.369 650.106C67.369 655.687 62.844 660.211 57.263 660.211C51.682 660.211 47.157 655.687 47.157 650.106ZM811.772 735.003C810.672 736.681 809.555 738.346 808.42 739.997V869.052H970.105V1024H976.842V862.315H815.158V729.913C814.021 731.605 812.889 733.3 811.772 735.003ZM849.185 754.527C847.325 763.64 853.205 772.536 862.32 774.397C871.432 776.257 880.329 770.377 882.189 761.263H1024V754.527H882.189C880.84 747.912 875.67 742.743 869.055 741.393C867.919 741.161 866.786 741.049 865.67 741.049C857.833 741.049 850.814 746.549 849.185 754.527ZM855.579 757.894C855.579 752.313 860.104 747.789 865.685 747.789C871.266 747.789 875.789 752.313 875.789 757.894C875.789 763.475 871.266 768 865.685 768C860.104 768 855.579 763.475 855.579 757.894ZM418.021 754.527H410.712C414.159 756.51 417.806 758.235 421.078 760.478C422.888 761.718 424.817 764.388 424.828 766.416C424.838 768.167 424.84 769.918 424.849 771.669C426.707 772.975 428.839 773.924 431.154 774.397C440.268 776.257 449.165 770.377 451.025 761.263C452.884 752.15 447.005 743.253 437.891 741.393C436.755 741.161 435.622 741.049 434.505 741.049C426.668 741.049 419.65 746.549 418.021 754.527ZM424.421 757.894C424.421 752.313 428.945 747.789 434.526 747.789C440.107 747.789 444.632 752.313 444.632 757.894C444.632 763.475 440.107 768 434.526 768C428.945 768 424.421 763.475 424.421 757.894ZM148.548 754.527H0V761.263H148.548C149.898 767.877 155.066 773.047 161.68 774.397C170.795 776.257 179.69 770.377 181.551 761.263C183.411 752.15 177.531 743.253 168.418 741.393C167.281 741.161 166.148 741.049 165.032 741.049C157.194 741.049 150.176 746.549 148.548 754.527ZM154.948 757.894C154.948 752.313 159.472 747.789 165.053 747.789C170.634 747.789 175.158 752.313 175.158 757.894C175.158 763.475 170.634 768 165.053 768C159.472 768 154.948 763.475 154.948 757.894ZM215.579 808.421H181.558C180.208 801.806 175.038 796.637 168.424 795.288C159.311 793.428 150.414 799.308 148.554 808.421C146.694 817.536 152.573 826.431 161.688 828.291C170.801 830.152 179.698 824.271 181.558 815.159H222.316V766.265C221.77 765.628 221.215 764.997 220.673 764.356C218.944 762.319 217.253 760.243 215.579 758.153V808.421ZM154.948 811.789C154.948 806.208 159.472 801.685 165.053 801.685C170.634 801.685 175.158 806.208 175.158 811.789C175.158 817.37 170.634 821.894 165.053 821.894C159.472 821.894 154.948 817.37 154.948 811.789ZM754.527 800.448V922.947H916.211V1024H922.947V916.211H761.264V794.256C759.043 796.344 756.793 798.404 754.527 800.448ZM849.185 808.421C847.325 817.536 853.205 826.431 862.32 828.291C871.432 830.152 880.329 824.271 882.189 815.159H1024V808.421H882.189C880.84 801.806 875.67 796.637 869.055 795.288C867.92 795.056 866.787 794.944 865.671 794.944C857.834 794.944 850.814 800.444 849.185 808.421ZM855.579 811.789C855.579 806.208 860.104 801.685 865.685 801.685C871.266 801.685 875.789 806.208 875.789 811.789C875.789 817.37 871.266 821.894 865.685 821.894C860.104 821.894 855.579 817.37 855.579 811.789ZM424.957 808.421C424.961 810.667 424.965 812.912 424.966 815.159H585.834C585.833 812.912 585.83 810.667 585.828 808.421H424.957ZM0 808.421V815.159H107.789V1024H114.527V811.789V808.421H0ZM269.473 862.315H181.558C180.208 855.701 175.038 850.532 168.424 849.182C159.311 847.322 150.414 853.202 148.554 862.315C146.694 871.429 152.573 880.325 161.688 882.185C170.801 884.046 179.698 878.166 181.558 869.052H276.21V818.454C273.941 816.689 271.691 814.9 269.473 813.074V862.315ZM154.948 865.685C154.948 860.104 159.472 855.579 165.053 855.579C170.634 855.579 175.158 860.104 175.158 865.685C175.158 871.266 170.634 875.789 165.053 875.789C159.472 875.789 154.948 871.266 154.948 865.685ZM323.368 869.052H364.778C359.59 866.946 354.453 864.72 349.411 862.315H330.106V852.462C327.852 851.259 325.606 850.045 323.368 848.814V869.052ZM687.495 862.315H661.803C656.338 864.679 650.809 866.912 645.238 869.052H687.495C688.845 875.667 694.013 880.836 700.628 882.185C709.742 884.046 718.637 878.166 720.498 869.052C722.358 859.938 716.478 851.043 707.365 849.182C706.229 848.95 705.095 848.839 703.979 848.839C696.141 848.838 689.124 854.338 687.495 862.315ZM693.895 865.685C693.895 860.104 698.419 855.579 704 855.579C709.581 855.579 714.106 860.104 714.106 865.685C714.106 871.266 709.581 875.789 704 875.789C698.419 875.789 693.895 871.266 693.895 865.685ZM424.968 862.315C424.967 864.561 424.966 866.807 424.965 869.052H585.841V862.315H424.968ZM0 862.315V1017.84C0.003 1017.83 0.006 1017.83 0.009 1017.83C5.272 1015.98 11.045 1018.74 12.901 1024H19.874C18.525 1017.38 13.353 1012.21 6.736 1010.86V869.052H53.895V1024H60.632V862.315H0ZM687.495 916.211H276.21H269.473V1024H276.21V922.947H687.495C688.845 929.561 694.013 934.731 700.628 936.081C709.742 937.941 718.637 932.061 720.498 922.947C722.358 913.834 716.478 904.937 707.365 903.077C706.228 902.845 705.095 902.733 703.979 902.733C696.142 902.733 689.124 908.233 687.495 916.211ZM693.895 919.579C693.895 913.998 698.419 909.473 704 909.473C709.581 909.473 714.106 913.998 714.106 919.579C714.106 925.16 709.581 929.684 704 929.684C698.419 929.684 693.895 925.16 693.895 919.579ZM161.684 916.211V1024H168.421V922.947H215.579V956.969C208.965 958.318 203.796 963.488 202.445 970.102C200.585 979.216 206.465 988.112 215.579 989.972C224.693 991.832 233.589 985.952 235.449 976.839C237.309 967.725 231.43 958.829 222.316 956.969V916.211H161.684ZM208.842 973.474C208.842 967.892 213.367 963.368 218.947 963.368C224.528 963.368 229.053 967.892 229.053 973.474C229.053 979.055 224.528 983.579 218.947 983.579C213.367 983.579 208.842 979.055 208.842 973.474ZM741.389 970.105H323.368V1024H330.106V976.842H741.389C742.739 983.456 747.908 988.625 754.523 989.975C763.636 991.836 772.533 985.956 774.393 976.842C776.254 967.728 770.373 958.832 761.26 956.972C760.123 956.74 758.99 956.628 757.874 956.628C750.037 956.628 743.018 962.128 741.389 970.105ZM747.789 973.474C747.789 967.892 752.314 963.368 757.894 963.368C763.475 963.368 768 967.892 768 973.474C768 979.055 763.475 983.579 757.894 983.579C752.314 983.579 747.789 979.055 747.789 973.474ZM808.42 970.105V1024H815.158V976.842H862.315V1024H869.053V973.474V970.105H808.42ZM364.126 1024H371.099C372.116 1021.11 374.388 1018.84 377.278 1017.82C382.543 1015.97 388.312 1018.74 390.164 1024H397.137C395.791 1017.37 390.611 1012.19 383.983 1010.85C382.853 1010.62 381.726 1010.51 380.615 1010.51C372.771 1010.51 365.748 1016.01 364.126 1024ZM1010.86 1024H1017.84C1018.85 1021.12 1021.12 1018.85 1024 1017.84V1010.86C1017.38 1012.21 1012.21 1017.38 1010.86 1024Z" fill="#C4C4C4"/>
<defs>
<filter id="filter0_i" x="128.408" y="140.734" width="296.779" height="749.168" filterUnits="userSpaceOnUse" color-interpolation-filters="sRGB">
<feFlood flood-opacity="0" result="BackgroundImageFix"/>
<feBlend mode="normal" in="SourceGraphic" in2="BackgroundImageFix" result="shape"/>
<feColorMatrix in="SourceAlpha" type="matrix" values="0 0 0 0 0 0 0 0 0 0 0 0 0 0 0 0 0 0 127 0" result="hardAlpha"/>
<feOffset dy="4"/>
<feGaussianBlur stdDeviation="12"/>
<feComposite in2="hardAlpha" operator="arithmetic" k2="-1" k3="1"/>
<feColorMatrix type="matrix" values="0 0 0 0 0 0 0 0 0 0 0 0 0 0 0 0 0 0 0.25 0"/>
<feBlend mode="normal" in2="shape" result="effect1_innerShadow"/>
</filter>
<filter id="filter1_i" x="585.617" y="140.776" width="296.384" height="749.151" filterUnits="userSpaceOnUse" color-interpolation-filters="sRGB">
<feFlood flood-opacity="0" result="BackgroundImageFix"/>
<feBlend mode="normal" in="SourceGraphic" in2="BackgroundImageFix" result="shape"/>
<feColorMatrix in="SourceAlpha" type="matrix" values="0 0 0 0 0 0 0 0 0 0 0 0 0 0 0 0 0 0 127 0" result="hardAlpha"/>
<feOffset dy="4"/>
<feGaussianBlur stdDeviation="12"/>
<feComposite in2="hardAlpha" operator="arithmetic" k2="-1" k3="1"/>
<feColorMatrix type="matrix" values="0 0 0 0 0 0 0 0 0 0 0 0 0 0 0 0 0 0 0.25 0"/>
<feBlend mode="normal" in2="shape" result="effect1_innerShadow"/>
</filter>
<linearGradient id="paint0_linear" x1="276.798" y1="885.902" x2="276.798" y2="140.734" gradientUnits="userSpaceOnUse">
<stop stop-color="#C578EA"/>
<stop offset="0.6" stop-color="#78DCEA"/>
<stop offset="1" stop-color="#77F9B0"/>
</linearGradient>
<linearGradient id="paint1_linear" x1="733.808" y1="885.927" x2="733.808" y2="140.776" gradientUnits="userSpaceOnUse">
<stop stop-color="#C578EA"/>
<stop offset="0.6" stop-color="#78DCEA"/>
<stop offset="1" stop-color="#77F9B0"/>
</linearGradient>
</defs>
</svg>
