<?xml version="1.0" encoding="UTF-8"?>
<!DOCTYPE svg PUBLIC "-//W3C//DTD SVG 1.1//EN" "http://www.w3.org/Graphics/SVG/1.1/DTD/svg11.dtd">
<svg version="1.1" xmlns="http://www.w3.org/2000/svg" xmlns:xlink="http://www.w3.org/1999/xlink" x="0" y="0" width="156.101" height="40" viewBox="0, 0, 156.101, 40">
  <defs>
    <linearGradient id="Gradient_1" gradientUnits="userSpaceOnUse" x1="17.64" y1="28.128" x2="17.64" y2="9.936">
      <stop offset="0.6" stop-color="#78DCEA"/>
      <stop offset="1" stop-color="#77F9B0"/>
    </linearGradient>
    <linearGradient id="Gradient_2" gradientUnits="userSpaceOnUse" x1="28.797" y1="28.129" x2="28.797" y2="9.937">
      <stop offset="0.6" stop-color="#78DCEA"/>
      <stop offset="1" stop-color="#77F9B0"/>
    </linearGradient>
    <clipPath id="Clip_1">
      <path d="M14.882,6.5 L31.882,6.5 C34.091,6.5 35.882,8.291 35.882,10.5 L35.882,27.5 C35.882,29.709 34.091,31.5 31.882,31.5 L14.882,31.5 C12.673,31.5 10.882,29.709 10.882,27.5 L10.882,10.5 C10.882,8.291 12.673,6.5 14.882,6.5 z"/>
    </clipPath>
  </defs>
  <g id="Layer_1">
    <g>
      <g>
        <path d="M146.571,0 L9.535,0 C9.168,0 8.806,0 8.44,0.002 C8.134,0.004 7.83,0.01 7.521,0.015 C6.85,0.023 6.18,0.082 5.517,0.191 C4.856,0.304 4.215,0.515 3.616,0.818 C3.019,1.124 2.472,1.522 1.998,1.997 C1.52,2.471 1.122,3.018 0.819,3.618 C0.515,4.217 0.305,4.859 0.194,5.521 C0.083,6.183 0.023,6.853 0.015,7.523 C0.006,7.83 0.005,8.138 0,8.444 L0,31.559 C0.005,31.869 0.006,32.17 0.015,32.48 C0.023,33.151 0.083,33.821 0.194,34.482 C0.304,35.145 0.515,35.788 0.819,36.387 C1.122,36.985 1.52,37.53 1.998,38.001 C2.471,38.478 3.017,38.876 3.616,39.18 C4.215,39.484 4.855,39.697 5.517,39.811 C6.18,39.919 6.85,39.978 7.521,39.987 C7.83,39.994 8.134,39.998 8.44,39.998 C8.806,40 9.168,40 9.535,40 L146.571,40 C146.931,40 147.296,40 147.655,39.998 C147.96,39.998 148.272,39.994 148.577,39.987 C149.247,39.979 149.916,39.92 150.577,39.811 C151.241,39.696 151.884,39.483 152.485,39.18 C153.084,38.876 153.63,38.478 154.103,38.001 C154.579,37.528 154.977,36.983 155.284,36.387 C155.586,35.787 155.795,35.145 155.903,34.482 C156.015,33.821 156.077,33.151 156.089,32.48 C156.093,32.17 156.093,31.869 156.093,31.559 C156.101,31.195 156.101,30.834 156.101,30.465 L156.101,9.536 C156.101,9.17 156.101,8.807 156.093,8.444 C156.093,8.138 156.093,7.83 156.089,7.523 C156.077,6.852 156.015,6.183 155.903,5.521 C155.795,4.859 155.586,4.218 155.284,3.618 C154.667,2.415 153.688,1.436 152.485,0.818 C151.884,0.516 151.241,0.304 150.577,0.191 C149.916,0.081 149.247,0.022 148.577,0.015 C148.272,0.01 147.96,0.004 147.655,0.002 C147.296,0 146.931,0 146.571,0 z" fill="#A6A6A6"/>
        <path d="M8.445,39.125 C8.14,39.125 7.843,39.121 7.541,39.114 C6.914,39.106 6.29,39.052 5.671,38.951 C5.095,38.852 4.537,38.667 4.015,38.403 C3.498,38.142 3.026,37.798 2.618,37.387 C2.204,36.98 1.859,36.508 1.597,35.99 C1.333,35.469 1.149,34.91 1.054,34.333 C0.951,33.713 0.896,33.086 0.888,32.458 C0.881,32.247 0.873,31.545 0.873,31.545 L0.873,8.444 C0.873,8.444 0.882,7.753 0.888,7.55 C0.895,6.922 0.951,6.297 1.053,5.678 C1.149,5.099 1.332,4.539 1.597,4.016 C1.857,3.498 2.2,3.026 2.612,2.618 C3.023,2.206 3.496,1.861 4.014,1.595 C4.535,1.332 5.092,1.149 5.667,1.051 C6.288,0.95 6.915,0.895 7.543,0.887 L8.445,0.875 L147.65,0.875 L148.563,0.888 C149.186,0.895 149.807,0.949 150.422,1.05 C151.003,1.149 151.566,1.334 152.093,1.598 C153.131,2.133 153.975,2.979 154.508,4.018 C154.768,4.538 154.949,5.094 155.043,5.667 C155.147,6.291 155.205,6.922 155.217,7.554 C155.22,7.837 155.22,8.142 155.22,8.444 C155.228,8.819 155.228,9.176 155.228,9.536 L155.228,30.465 C155.228,30.828 155.228,31.183 155.22,31.54 C155.22,31.865 155.22,32.163 155.216,32.47 C155.204,33.091 155.147,33.71 155.045,34.323 C154.952,34.904 154.769,35.468 154.505,35.993 C154.241,36.506 153.898,36.973 153.489,37.379 C153.081,37.793 152.608,38.138 152.09,38.401 C151.565,38.667 151.002,38.853 150.422,38.951 C149.804,39.052 149.179,39.107 148.553,39.114 C148.26,39.121 147.953,39.125 147.655,39.125 L146.571,39.127 z" fill="#000000"/>
      </g>
      <g id="_Group_2"/>
    </g>
    <text transform="matrix(1, 0, 0, 1, 93.609, 21.033)">
      <tspan x="-47.682" y="3.95" font-family="HelveticaNeue" font-size="18" fill="#FFFFFF">Try It Online</tspan>
    </text>
    <g>
      <path d="M14.882,6.5 L31.882,6.5 C34.091,6.5 35.882,8.291 35.882,10.5 L35.882,27.5 C35.882,29.709 34.091,31.5 31.882,31.5 L14.882,31.5 C12.673,31.5 10.882,29.709 10.882,27.5 L10.882,10.5 C10.882,8.291 12.673,6.5 14.882,6.5 z" fill="#000000"/>
      <g clip-path="url(#Clip_1)">
        <path d="M10.882,6.5 L35.882,6.5 L35.882,31.5 L10.882,31.5 z" fill="#FFFFFF"/>
        <path d="M20.813,10.04 C20.431,10.168 20.052,10.307 19.672,10.441 C19.196,10.61 18.759,10.864 18.339,11.133 C17.824,11.462 17.334,11.833 16.914,12.282 C16.567,12.653 16.218,13.026 15.906,13.426 C15.653,13.751 15.442,14.109 15.234,14.466 C14.91,15.021 14.651,15.608 14.467,16.225 C14.373,16.537 14.3,16.855 14.222,17.171 C14.112,17.612 14.038,18.057 14.041,18.514 C14.041,18.599 14.025,18.685 14.017,18.771 L14.017,19.241 C14.024,19.267 14.034,19.293 14.036,19.319 C14.056,19.584 14.057,19.851 14.098,20.111 C14.166,20.541 14.246,20.97 14.347,21.394 C14.425,21.719 14.523,22.044 14.65,22.354 C14.84,22.818 15.03,23.287 15.281,23.718 C15.574,24.222 15.894,24.718 16.27,25.161 C16.847,25.842 17.499,26.457 18.267,26.927 C18.609,27.137 18.962,27.329 19.32,27.508 C19.592,27.644 19.877,27.757 20.163,27.861 C20.43,27.958 20.705,28.034 20.979,28.109 C21.064,28.132 21.157,28.123 21.246,28.128 C21.252,28.097 21.257,28.084 21.257,28.071 C21.258,27.118 21.259,26.165 21.254,25.211 C21.254,25.162 21.207,25.097 21.162,25.066 C21.045,24.986 20.907,24.933 20.795,24.847 C20.482,24.605 20.163,24.369 19.874,24.101 C19.526,23.778 19.226,23.408 18.987,22.995 C18.855,22.767 18.716,22.54 18.611,22.3 C18.461,21.958 18.32,21.609 18.211,21.253 C18.12,20.956 18.068,20.646 18.023,20.338 C17.968,19.967 17.908,19.592 17.909,19.219 C17.91,18.823 17.969,18.425 18.023,18.031 C18.066,17.709 18.126,17.387 18.204,17.071 C18.312,16.631 18.486,16.213 18.685,15.804 C19.01,15.136 19.436,14.544 19.983,14.038 C20.326,13.721 20.7,13.45 21.117,13.239 C21.223,13.186 21.263,13.116 21.263,12.991 C21.257,12.029 21.26,11.066 21.26,10.104 L21.26,9.936 C21.094,9.973 20.949,9.994 20.813,10.04 z" fill="url(#Gradient_1)"/>
        <path d="M25.182,10.103 C25.182,11.066 25.185,12.029 25.179,12.991 C25.179,13.115 25.223,13.19 25.323,13.243 C25.708,13.443 26.069,13.679 26.372,13.991 C26.666,14.293 26.974,14.589 27.224,14.926 C27.465,15.25 27.652,15.617 27.839,15.977 C28.051,16.384 28.198,16.819 28.301,17.266 C28.353,17.491 28.392,17.72 28.424,17.948 C28.469,18.261 28.524,18.575 28.536,18.89 C28.562,19.578 28.468,20.256 28.306,20.925 C28.245,21.175 28.187,21.427 28.104,21.67 C28.018,21.921 27.916,22.167 27.799,22.405 C27.556,22.896 27.264,23.357 26.907,23.774 C26.456,24.302 25.911,24.713 25.309,25.051 C25.218,25.102 25.182,25.157 25.182,25.261 C25.186,26.173 25.184,27.085 25.185,27.997 C25.185,28.037 25.189,28.077 25.192,28.126 C25.237,28.126 25.274,28.133 25.307,28.125 C25.555,28.064 25.809,28.017 26.05,27.932 C26.471,27.782 26.895,27.628 27.298,27.436 C27.63,27.277 27.943,27.072 28.248,26.864 C28.559,26.652 28.863,26.427 29.147,26.181 C29.737,25.668 30.27,25.101 30.701,24.444 C30.88,24.172 31.073,23.907 31.23,23.622 C31.396,23.32 31.536,23.003 31.671,22.685 C31.802,22.376 31.924,22.06 32.025,21.74 C32.111,21.469 32.172,21.189 32.222,20.909 C32.292,20.519 32.345,20.126 32.397,19.733 C32.414,19.606 32.408,19.475 32.411,19.346 C32.421,18.814 32.423,18.279 32.326,17.755 C32.231,17.247 32.11,16.742 31.963,16.247 C31.842,15.842 31.677,15.449 31.51,15.06 C31.305,14.58 31.046,14.127 30.74,13.704 C30.515,13.392 30.273,13.09 30.033,12.789 C29.936,12.667 29.825,12.555 29.716,12.442 C29.545,12.266 29.382,12.079 29.193,11.923 C28.934,11.709 28.653,11.522 28.383,11.321 C27.913,10.969 27.396,10.693 26.862,10.461 C26.448,10.282 26.008,10.163 25.578,10.024 C25.458,9.985 25.331,9.969 25.182,9.937 L25.182,10.103 z" fill="url(#Gradient_2)"/>
        <path d="M35.561,6.5 C35.561,6.5 35.561,6.5 35.561,6.5 C35.516,6.723 35.66,6.94 35.882,6.985 L35.882,6.815 C35.882,6.815 35.882,6.815 35.882,6.815 C35.753,6.769 35.686,6.628 35.732,6.5 L35.561,6.5 z M34.566,6.5 L34.566,7.98 L35.882,7.98 L35.882,7.816 L34.731,7.816 L34.731,6.5 L34.566,6.5 z M33.251,6.5 L33.251,9.296 L34.246,9.296 C34.279,9.458 34.405,9.584 34.566,9.617 C34.789,9.662 35.006,9.519 35.051,9.296 C35.097,9.074 34.953,8.856 34.731,8.811 C34.508,8.766 34.291,8.909 34.246,9.132 L33.415,9.132 L33.415,6.5 L33.251,6.5 z M34.402,9.214 C34.402,9.078 34.512,8.967 34.649,8.967 C34.785,8.967 34.895,9.078 34.895,9.214 C34.895,9.35 34.785,9.461 34.649,9.461 C34.512,9.461 34.402,9.35 34.402,9.214 z M31.935,6.5 L31.935,7.495 C31.773,7.528 31.647,7.654 31.614,7.816 C31.569,8.038 31.712,8.255 31.935,8.301 C32.157,8.346 32.374,8.203 32.42,7.98 C32.465,7.758 32.322,7.54 32.099,7.495 L32.099,6.5 L31.935,6.5 z M31.77,7.898 C31.77,7.762 31.881,7.651 32.017,7.651 C32.153,7.651 32.264,7.762 32.264,7.898 C32.264,8.034 32.153,8.145 32.017,8.145 C31.881,8.145 31.77,8.034 31.77,7.898 z M26.672,6.5 L26.672,10.384 C26.727,10.405 26.782,10.427 26.836,10.45 L26.836,6.664 L30.783,6.664 L30.783,6.5 L26.672,6.5 z M20.408,6.5 C20.426,6.553 20.426,6.611 20.408,6.664 C20.362,6.792 20.222,6.86 20.093,6.815 C19.964,6.769 19.897,6.629 19.942,6.5 L19.772,6.5 C19.726,6.723 19.87,6.94 20.093,6.985 C20.315,7.031 20.532,6.887 20.578,6.664 L25.356,6.664 L25.356,9.132 L24.204,9.132 L24.204,8.301 C24.366,8.268 24.492,8.142 24.525,7.98 C24.571,7.758 24.427,7.541 24.204,7.495 C23.982,7.45 23.765,7.593 23.719,7.816 C23.674,8.038 23.818,8.256 24.04,8.301 L24.04,9.296 L25.52,9.296 L25.52,6.5 L20.408,6.5 z M23.876,7.898 C23.876,7.762 23.986,7.651 24.122,7.651 C24.259,7.651 24.369,7.762 24.369,7.898 C24.369,8.034 24.259,8.145 24.122,8.145 C23.986,8.145 23.876,8.034 23.876,7.898 z M18.777,6.5 L18.777,10.447 L16.145,10.447 L16.145,13.132 C16.199,13.068 16.254,13.005 16.31,12.942 L16.31,10.612 L18.941,10.612 L18.941,6.5 L18.777,6.5 z M17.461,6.5 L17.461,9.132 L15.315,9.132 C15.282,8.97 15.156,8.844 14.994,8.811 C14.772,8.766 14.554,8.909 14.509,9.132 C14.464,9.354 14.607,9.571 14.83,9.617 C15.052,9.662 15.269,9.519 15.315,9.296 L17.626,9.296 L17.626,6.5 L17.461,6.5 z M14.665,9.214 C14.665,9.078 14.775,8.967 14.912,8.967 C15.048,8.967 15.158,9.078 15.158,9.214 C15.158,9.35 15.048,9.461 14.912,9.461 C14.775,9.461 14.665,9.35 14.665,9.214 z M14.829,6.5 L14.829,6.664 L16.145,6.664 L16.145,7.816 L15.315,7.816 C15.282,7.654 15.156,7.528 14.994,7.495 C14.772,7.45 14.554,7.593 14.509,7.816 C14.464,8.038 14.607,8.255 14.83,8.301 C15.052,8.346 15.269,8.203 15.315,7.98 L16.31,7.98 L16.31,6.5 L14.829,6.5 z M14.665,7.898 C14.665,7.762 14.775,7.651 14.912,7.651 C15.048,7.651 15.158,7.762 15.158,7.898 C15.158,8.034 15.048,8.145 14.912,8.145 C14.775,8.145 14.665,8.034 14.665,7.898 z M13.514,6.5 L13.514,9.838 L11.589,11.763 L10.882,11.763 L10.882,11.928 L11.656,11.928 L13.678,9.905 L13.678,9.773 L13.678,6.5 L13.514,6.5 z M12.198,6.5 L12.198,7.816 L10.882,7.816 L10.882,7.98 L12.28,7.98 L12.362,7.98 L12.362,6.5 L12.198,6.5 z M11.197,6.5 C11.216,6.553 11.216,6.612 11.197,6.665 C11.152,6.793 11.011,6.86 10.882,6.815 L10.882,6.985 C10.935,6.996 10.99,6.996 11.043,6.985 C11.266,6.941 11.412,6.724 11.367,6.5 L11.197,6.5 z M19.772,7.816 C19.727,8.038 19.87,8.255 20.093,8.301 C20.315,8.346 20.532,8.203 20.578,7.98 L22.724,7.98 L22.724,11.442 C22.563,11.475 22.437,11.602 22.404,11.763 C22.358,11.986 22.502,12.203 22.724,12.248 C22.947,12.294 23.164,12.15 23.209,11.928 C23.255,11.705 23.111,11.488 22.889,11.442 L22.889,7.816 L20.578,7.816 C20.545,7.654 20.419,7.528 20.257,7.495 C20.229,7.49 20.202,7.487 20.174,7.487 C19.983,7.487 19.812,7.621 19.772,7.816 z M19.928,7.898 C19.928,7.762 20.039,7.651 20.175,7.651 C20.311,7.651 20.422,7.762 20.422,7.898 C20.422,8.034 20.311,8.145 20.175,8.145 C20.039,8.145 19.928,8.034 19.928,7.898 z M22.56,11.845 C22.56,11.709 22.67,11.599 22.806,11.599 C22.943,11.599 23.053,11.709 23.053,11.845 C23.053,11.982 22.943,12.092 22.806,12.092 C22.67,12.092 22.56,11.982 22.56,11.845 z M30.298,7.816 C30.253,8.038 30.396,8.256 30.619,8.301 L30.619,13.243 L35.882,13.243 L35.882,13.079 L30.783,13.079 L30.783,8.301 C30.945,8.268 31.071,8.142 31.104,7.98 C31.149,7.758 31.006,7.541 30.783,7.495 C30.756,7.49 30.728,7.487 30.701,7.487 C30.509,7.487 30.338,7.621 30.298,7.816 z M30.455,7.898 C30.455,7.762 30.565,7.651 30.701,7.651 C30.837,7.651 30.948,7.762 30.948,7.898 C30.948,8.034 30.837,8.145 30.701,8.145 C30.565,8.145 30.455,8.034 30.455,7.898 z M28.983,7.816 C28.937,8.038 29.081,8.256 29.303,8.301 L29.303,12.02 C29.359,12.072 29.414,12.126 29.468,12.182 L29.468,8.301 C29.629,8.268 29.755,8.142 29.788,7.98 C29.834,7.758 29.69,7.541 29.468,7.495 C29.44,7.49 29.412,7.487 29.385,7.487 C29.194,7.487 29.022,7.621 28.983,7.816 z M29.139,7.898 C29.139,7.762 29.249,7.651 29.385,7.651 C29.522,7.651 29.632,7.762 29.632,7.898 C29.632,8.034 29.522,8.145 29.385,8.145 C29.249,8.145 29.139,8.034 29.139,7.898 z M27.667,7.816 C27.621,8.038 27.765,8.256 27.987,8.301 L27.987,11.049 C28.043,11.084 28.098,11.12 28.152,11.156 L28.152,8.301 C28.313,8.268 28.44,8.142 28.472,7.98 C28.518,7.758 28.374,7.541 28.152,7.495 C28.124,7.49 28.096,7.487 28.069,7.487 C27.878,7.487 27.707,7.621 27.667,7.816 z M27.823,7.898 C27.823,7.762 27.933,7.651 28.07,7.651 C28.206,7.651 28.316,7.762 28.316,7.898 C28.316,8.034 28.206,8.145 28.07,8.145 C27.933,8.145 27.823,8.034 27.823,7.898 z M11.877,9.132 L11.589,9.132 L10.882,9.839 L10.882,10.07 L11.656,9.296 L11.877,9.296 C11.91,9.458 12.036,9.584 12.198,9.617 C12.42,9.662 12.638,9.519 12.683,9.296 C12.728,9.074 12.585,8.856 12.362,8.811 C12.335,8.805 12.307,8.803 12.28,8.803 C12.088,8.803 11.917,8.937 11.877,9.132 z M12.033,9.214 C12.033,9.078 12.144,8.967 12.28,8.967 C12.416,8.967 12.527,9.078 12.527,9.214 C12.527,9.35 12.416,9.461 12.28,9.461 C12.144,9.461 12.033,9.35 12.033,9.214 z M31.614,9.132 C31.569,9.354 31.712,9.571 31.935,9.617 L31.935,11.928 L35.882,11.928 L35.882,11.763 L32.099,11.763 L32.099,9.617 C32.261,9.584 32.387,9.458 32.42,9.296 C32.465,9.074 32.322,8.856 32.099,8.811 C32.071,8.805 32.044,8.803 32.017,8.803 C31.825,8.803 31.654,8.937 31.614,9.132 z M31.77,9.214 C31.77,9.078 31.881,8.967 32.017,8.967 C32.153,8.967 32.264,9.078 32.264,9.214 C32.264,9.35 32.153,9.461 32.017,9.461 C31.881,9.461 31.77,9.35 31.77,9.214 z M21.088,9.132 C21.042,9.354 21.186,9.571 21.408,9.617 L21.408,13.079 L21.254,13.079 C21.237,13.151 21.195,13.2 21.117,13.239 C21.114,13.241 21.112,13.242 21.109,13.243 L21.573,13.243 L21.573,9.617 C21.734,9.584 21.861,9.458 21.894,9.296 C21.939,9.074 21.795,8.856 21.573,8.811 C21.545,8.805 21.517,8.803 21.49,8.803 C21.299,8.803 21.128,8.937 21.088,9.132 z M21.244,9.214 C21.244,9.078 21.354,8.967 21.491,8.967 C21.627,8.967 21.737,9.078 21.737,9.214 C21.737,9.35 21.627,9.461 21.491,9.461 C21.354,9.461 21.244,9.35 21.244,9.214 z M19.772,9.132 C19.727,9.354 19.87,9.571 20.093,9.617 L20.093,10.291 C20.147,10.272 20.202,10.252 20.257,10.233 L20.257,9.617 C20.419,9.584 20.545,9.458 20.578,9.296 C20.623,9.074 20.48,8.856 20.257,8.811 C20.229,8.805 20.202,8.803 20.174,8.803 C19.983,8.803 19.812,8.937 19.772,9.132 z M19.928,9.214 C19.928,9.078 20.039,8.967 20.175,8.967 C20.311,8.967 20.422,9.078 20.422,9.214 C20.422,9.35 20.311,9.461 20.175,9.461 C20.039,9.461 19.928,9.35 19.928,9.214 z M35.273,10.447 L33.736,10.447 C33.703,10.286 33.577,10.16 33.415,10.127 C33.193,10.081 32.975,10.225 32.93,10.447 C32.885,10.67 33.028,10.887 33.251,10.932 C33.473,10.978 33.69,10.834 33.736,10.612 L35.34,10.612 L35.882,10.07 L35.882,9.838 L35.273,10.447 z M33.086,10.53 C33.086,10.393 33.197,10.283 33.333,10.283 C33.469,10.283 33.58,10.393 33.58,10.53 C33.58,10.666 33.469,10.776 33.333,10.776 C33.197,10.776 33.086,10.666 33.086,10.53 z M23.719,10.447 C23.674,10.67 23.818,10.887 24.04,10.932 C24.263,10.978 24.48,10.834 24.525,10.612 L25.182,10.612 C25.182,10.557 25.182,10.502 25.182,10.447 L24.525,10.447 C24.492,10.286 24.366,10.16 24.205,10.127 C24.177,10.121 24.149,10.118 24.122,10.118 C23.931,10.118 23.759,10.253 23.719,10.447 z M23.876,10.53 C23.876,10.393 23.986,10.283 24.122,10.283 C24.259,10.283 24.369,10.393 24.369,10.53 C24.369,10.666 24.259,10.776 24.122,10.776 C23.986,10.776 23.876,10.666 23.876,10.53 z M14.509,10.447 C14.463,10.67 14.607,10.887 14.829,10.933 L14.829,14.443 L10.882,18.391 L10.882,23.77 L13.193,23.77 C13.226,23.931 13.352,24.057 13.514,24.09 C13.736,24.136 13.953,23.992 13.999,23.77 C14.044,23.547 13.901,23.33 13.678,23.285 C13.456,23.239 13.238,23.383 13.193,23.605 L11.047,23.605 L11.047,18.458 L14.994,14.511 L14.994,10.933 C15.155,10.9 15.282,10.773 15.315,10.612 C15.36,10.389 15.216,10.172 14.994,10.127 C14.966,10.121 14.939,10.118 14.911,10.118 C14.72,10.118 14.549,10.253 14.509,10.447 z M14.665,10.53 C14.665,10.393 14.775,10.283 14.912,10.283 C15.048,10.283 15.158,10.393 15.158,10.53 C15.158,10.666 15.048,10.776 14.912,10.776 C14.775,10.776 14.665,10.666 14.665,10.53 z M13.349,23.688 C13.349,23.551 13.46,23.441 13.596,23.441 C13.732,23.441 13.843,23.551 13.843,23.688 C13.843,23.824 13.732,23.934 13.596,23.934 C13.46,23.934 13.349,23.824 13.349,23.688 z M13.193,11.763 C13.148,11.986 13.291,12.203 13.514,12.248 L13.514,13.785 L10.882,16.417 L10.882,16.649 L13.678,13.853 L13.678,12.248 C13.84,12.215 13.966,12.089 13.999,11.928 C14.044,11.705 13.901,11.488 13.678,11.443 C13.65,11.437 13.623,11.434 13.596,11.434 C13.404,11.434 13.233,11.568 13.193,11.763 z M13.349,11.845 C13.349,11.709 13.46,11.599 13.596,11.599 C13.732,11.599 13.843,11.709 13.843,11.845 C13.843,11.982 13.732,12.092 13.596,12.092 C13.46,12.092 13.349,11.982 13.349,11.845 z M24.78,11.763 L22.149,14.395 L20.578,14.395 C20.545,14.233 20.419,14.107 20.257,14.074 C20.035,14.029 19.818,14.172 19.772,14.395 C19.727,14.617 19.87,14.834 20.093,14.88 C20.315,14.925 20.532,14.782 20.578,14.559 L22.217,14.559 L24.848,11.928 L25.183,11.928 C25.183,11.873 25.183,11.818 25.183,11.763 L24.78,11.763 z M19.928,14.477 C19.928,14.341 20.039,14.23 20.175,14.23 C20.311,14.23 20.422,14.341 20.422,14.477 C20.422,14.613 20.311,14.724 20.175,14.724 C20.039,14.724 19.928,14.613 19.928,14.477 z M17.461,11.763 L17.461,11.768 C17.463,11.767 17.465,11.765 17.467,11.763 L17.461,11.763 z M11.877,13.079 L10.882,13.079 L10.882,13.243 L11.877,13.243 C11.91,13.405 12.036,13.531 12.198,13.564 C12.42,13.609 12.638,13.466 12.683,13.243 C12.728,13.021 12.585,12.804 12.362,12.758 C12.335,12.753 12.307,12.75 12.28,12.75 C12.088,12.75 11.917,12.884 11.877,13.079 z M12.033,13.161 C12.033,13.025 12.144,12.914 12.28,12.914 C12.416,12.914 12.527,13.025 12.527,13.161 C12.527,13.297 12.416,13.408 12.28,13.408 C12.144,13.408 12.033,13.297 12.033,13.161 z M22.724,15.677 L22.724,21.969 C22.563,22.002 22.437,22.128 22.404,22.289 C22.358,22.512 22.502,22.729 22.724,22.775 C22.947,22.82 23.164,22.676 23.209,22.454 C23.255,22.231 23.111,22.014 22.889,21.969 L22.889,15.744 L25.367,13.266 C25.352,13.258 25.338,13.25 25.323,13.243 C25.284,13.222 25.254,13.199 25.231,13.17 L22.724,15.677 z M22.56,22.372 C22.56,22.235 22.67,22.125 22.806,22.125 C22.943,22.125 23.053,22.235 23.053,22.372 C23.053,22.508 22.943,22.618 22.806,22.618 C22.67,22.618 22.56,22.508 22.56,22.372 z M10.882,14.074 L10.882,14.244 C10.935,14.226 10.993,14.226 11.046,14.244 C11.174,14.289 11.242,14.43 11.197,14.559 C11.151,14.687 11.011,14.755 10.882,14.71 L10.882,14.88 C10.909,14.885 10.937,14.888 10.964,14.888 C11.192,14.888 11.376,14.704 11.376,14.477 C11.375,14.451 11.373,14.424 11.368,14.398 C11.329,14.202 11.156,14.066 10.963,14.066 C10.936,14.066 10.909,14.069 10.882,14.074 z M35.561,14.395 L31.182,14.395 C31.212,14.449 31.242,14.504 31.271,14.559 L35.561,14.559 C35.594,14.721 35.72,14.847 35.882,14.88 L35.882,14.71 C35.812,14.685 35.756,14.629 35.731,14.559 C35.686,14.43 35.754,14.289 35.882,14.244 L35.882,14.074 C35.72,14.107 35.594,14.233 35.561,14.395 z M26.062,14.395 L24.04,16.417 L24.04,24.6 C23.879,24.633 23.752,24.759 23.719,24.921 C23.674,25.143 23.818,25.361 24.04,25.406 C24.262,25.452 24.48,25.308 24.525,25.085 C24.571,24.863 24.427,24.646 24.204,24.6 L24.204,16.484 L26.13,14.559 L26.92,14.559 C26.87,14.504 26.818,14.449 26.766,14.395 L26.062,14.395 z M23.876,25.003 C23.876,24.867 23.986,24.757 24.122,24.757 C24.259,24.757 24.369,24.867 24.369,25.003 C24.369,25.14 24.259,25.25 24.122,25.25 C23.986,25.25 23.876,25.14 23.876,25.003 z M18.777,15.623 L18.777,18.342 L17.98,18.342 C17.973,18.397 17.966,18.452 17.96,18.507 L18.941,18.507 L18.941,15.329 C18.884,15.425 18.829,15.523 18.777,15.623 z M34.246,15.711 L31.778,15.711 C31.799,15.765 31.819,15.82 31.839,15.875 L34.246,15.875 C34.279,16.036 34.405,16.163 34.566,16.196 C34.789,16.241 35.006,16.098 35.051,15.875 C35.097,15.652 34.953,15.435 34.731,15.39 C34.703,15.384 34.675,15.381 34.648,15.381 C34.457,15.381 34.285,15.516 34.246,15.711 z M34.402,15.793 C34.402,15.657 34.512,15.546 34.649,15.546 C34.785,15.546 34.895,15.657 34.895,15.793 C34.895,15.929 34.785,16.039 34.649,16.039 C34.512,16.039 34.402,15.929 34.402,15.793 z M26.351,15.711 C26.306,15.933 26.449,16.15 26.672,16.196 C26.894,16.241 27.111,16.098 27.157,15.875 L27.786,15.875 C27.757,15.82 27.729,15.765 27.7,15.711 L27.157,15.711 C27.124,15.549 26.998,15.423 26.836,15.39 C26.808,15.384 26.781,15.381 26.753,15.381 C26.562,15.381 26.391,15.516 26.351,15.711 z M26.507,15.793 C26.507,15.657 26.618,15.546 26.754,15.546 C26.89,15.546 27.001,15.657 27.001,15.793 C27.001,15.929 26.89,16.039 26.754,16.039 C26.618,16.039 26.507,15.929 26.507,15.793 z M21.088,15.711 L20.093,15.711 L20.093,19.658 L17.946,19.658 C17.941,19.635 17.935,19.612 17.926,19.59 C17.933,19.668 17.941,19.745 17.95,19.822 L20.257,19.822 L20.257,15.875 L21.088,15.875 C21.121,16.036 21.247,16.163 21.408,16.196 C21.631,16.241 21.848,16.098 21.893,15.875 C21.939,15.652 21.795,15.435 21.573,15.39 C21.545,15.384 21.517,15.381 21.49,15.381 C21.299,15.381 21.127,15.516 21.088,15.711 z M21.244,15.793 C21.244,15.657 21.354,15.546 21.491,15.546 C21.627,15.546 21.737,15.657 21.737,15.793 C21.737,15.929 21.627,16.039 21.491,16.039 C21.354,16.039 21.244,15.929 21.244,15.793 z M34.566,17.733 L34.566,23.605 L32.42,23.605 C32.387,23.444 32.261,23.318 32.099,23.285 C31.877,23.239 31.66,23.383 31.614,23.605 C31.569,23.828 31.712,24.045 31.935,24.09 C32.157,24.136 32.375,23.992 32.42,23.77 L34.731,23.77 L34.731,17.8 L35.882,16.649 L35.882,16.417 L34.566,17.733 z M31.77,23.688 C31.77,23.551 31.881,23.441 32.017,23.441 C32.153,23.441 32.264,23.551 32.264,23.688 C32.264,23.824 32.153,23.934 32.017,23.934 C31.881,23.934 31.77,23.824 31.77,23.688 z M32.93,17.026 L32.171,17.026 C32.184,17.081 32.197,17.136 32.209,17.191 L32.93,17.191 C32.963,17.352 33.089,17.478 33.25,17.511 C33.473,17.557 33.69,17.413 33.736,17.191 C33.781,16.968 33.637,16.751 33.415,16.706 C33.387,16.7 33.36,16.697 33.332,16.697 C33.141,16.697 32.97,16.832 32.93,17.026 z M33.086,17.109 C33.086,16.972 33.197,16.862 33.333,16.862 C33.469,16.862 33.58,16.972 33.58,17.109 C33.58,17.245 33.469,17.355 33.333,17.355 C33.197,17.355 33.086,17.245 33.086,17.109 z M25.035,17.026 C24.99,17.249 25.133,17.466 25.356,17.511 C25.578,17.557 25.796,17.413 25.841,17.191 L28.283,17.191 C28.27,17.136 28.256,17.081 28.241,17.026 L25.841,17.026 C25.808,16.865 25.682,16.739 25.52,16.706 C25.493,16.7 25.465,16.697 25.438,16.697 C25.246,16.697 25.075,16.832 25.035,17.026 z M25.191,17.109 C25.191,16.972 25.302,16.862 25.438,16.862 C25.574,16.862 25.685,16.972 25.685,17.109 C25.685,17.245 25.574,17.355 25.438,17.355 C25.302,17.355 25.191,17.245 25.191,17.109 z M21.088,17.026 C21.042,17.249 21.186,17.466 21.408,17.512 L21.408,23.77 L22.724,23.77 L22.724,24.6 C22.563,24.633 22.437,24.759 22.404,24.921 C22.358,25.143 22.502,25.361 22.724,25.406 C22.947,25.452 23.164,25.308 23.209,25.085 C23.255,24.863 23.111,24.646 22.889,24.6 L22.889,23.605 L21.573,23.605 L21.573,17.512 C21.734,17.479 21.861,17.352 21.894,17.191 C21.939,16.968 21.795,16.751 21.573,16.706 C21.545,16.7 21.517,16.697 21.49,16.697 C21.299,16.697 21.128,16.832 21.088,17.026 z M21.244,17.109 C21.244,16.972 21.354,16.862 21.491,16.862 C21.627,16.862 21.737,16.972 21.737,17.109 C21.737,17.245 21.627,17.355 21.491,17.355 C21.354,17.355 21.244,17.245 21.244,17.109 z M22.56,25.003 C22.56,24.867 22.67,24.757 22.806,24.757 C22.943,24.757 23.053,24.867 23.053,25.003 C23.053,25.14 22.943,25.25 22.806,25.25 C22.67,25.25 22.56,25.14 22.56,25.003 z M12.198,19.049 L12.198,19.337 C12.036,19.37 11.91,19.496 11.877,19.658 C11.832,19.88 11.975,20.098 12.198,20.143 C12.42,20.188 12.638,20.045 12.683,19.822 C12.728,19.6 12.585,19.383 12.362,19.337 L12.362,19.116 L14.195,17.284 C14.204,17.246 14.212,17.209 14.222,17.171 C14.238,17.107 14.254,17.042 14.27,16.977 L12.198,19.049 z M12.033,19.74 C12.033,19.604 12.144,19.493 12.28,19.493 C12.416,19.493 12.527,19.604 12.527,19.74 C12.527,19.876 12.416,19.987 12.28,19.987 C12.144,19.987 12.033,19.876 12.033,19.74 z M25.035,18.342 C24.99,18.565 25.133,18.782 25.356,18.827 C25.578,18.873 25.796,18.729 25.841,18.507 L28.504,18.507 C28.497,18.452 28.49,18.397 28.482,18.342 L25.841,18.342 C25.808,18.181 25.682,18.054 25.52,18.021 C25.493,18.016 25.465,18.013 25.438,18.013 C25.246,18.013 25.075,18.147 25.035,18.342 z M25.191,18.424 C25.191,18.288 25.302,18.178 25.438,18.178 C25.574,18.178 25.685,18.288 25.685,18.424 C25.685,18.561 25.574,18.671 25.438,18.671 C25.302,18.671 25.191,18.561 25.191,18.424 z M32.408,18.55 C32.413,18.536 32.417,18.521 32.42,18.507 L33.251,18.507 L33.251,21.969 C33.089,22.002 32.963,22.128 32.93,22.289 C32.884,22.512 33.028,22.729 33.251,22.775 C33.473,22.82 33.69,22.676 33.736,22.454 C33.781,22.231 33.638,22.014 33.415,21.969 L33.415,18.342 L32.42,18.342 C32.414,18.311 32.404,18.281 32.391,18.253 C32.399,18.352 32.405,18.451 32.408,18.55 z M33.086,22.372 C33.086,22.235 33.197,22.125 33.333,22.125 C33.469,22.125 33.58,22.235 33.58,22.372 C33.58,22.508 33.469,22.618 33.333,22.618 C33.197,22.618 33.086,22.508 33.086,22.372 z M13.193,19.658 C13.148,19.88 13.291,20.098 13.514,20.143 C13.736,20.188 13.953,20.045 13.999,19.822 L14.066,19.822 C14.062,19.768 14.059,19.713 14.056,19.658 L13.999,19.658 C13.966,19.496 13.84,19.37 13.678,19.337 C13.651,19.332 13.623,19.329 13.596,19.329 C13.404,19.329 13.233,19.463 13.193,19.658 z M13.349,19.74 C13.349,19.604 13.46,19.493 13.596,19.493 C13.732,19.493 13.843,19.604 13.843,19.74 C13.843,19.876 13.732,19.987 13.596,19.987 C13.46,19.987 13.349,19.876 13.349,19.74 z M26.351,19.658 C26.306,19.88 26.449,20.098 26.672,20.143 L26.672,24.03 C26.728,23.973 26.783,23.915 26.836,23.855 L26.836,20.143 C26.998,20.11 27.124,19.984 27.157,19.822 C27.202,19.6 27.059,19.383 26.836,19.337 C26.808,19.332 26.781,19.329 26.753,19.329 C26.562,19.329 26.391,19.463 26.351,19.658 z M26.507,19.74 C26.507,19.604 26.618,19.493 26.754,19.493 C26.89,19.493 27.001,19.604 27.001,19.74 C27.001,19.876 26.89,19.987 26.754,19.987 C26.618,19.987 26.507,19.876 26.507,19.74 z M25.035,19.658 C24.99,19.88 25.133,20.098 25.356,20.143 L25.356,25.024 C25.411,24.992 25.466,24.96 25.52,24.927 L25.52,20.143 C25.682,20.11 25.808,19.984 25.841,19.822 C25.886,19.6 25.743,19.383 25.52,19.337 C25.493,19.332 25.465,19.329 25.438,19.329 C25.246,19.329 25.075,19.463 25.035,19.658 z M25.191,19.74 C25.191,19.604 25.302,19.493 25.438,19.493 C25.574,19.493 25.685,19.604 25.685,19.74 C25.685,19.876 25.574,19.987 25.438,19.987 C25.302,19.987 25.191,19.876 25.191,19.74 z M27.987,19.658 L27.987,21.983 C28.029,21.88 28.068,21.775 28.104,21.67 C28.121,21.621 28.137,21.571 28.152,21.52 L28.152,19.822 L28.502,19.822 C28.508,19.768 28.513,19.713 28.517,19.658 L27.987,19.658 z M18.456,20.974 C18.411,21.196 18.554,21.413 18.777,21.459 C18.999,21.504 19.217,21.361 19.262,21.138 L20.093,21.138 L20.093,24.294 C20.147,24.34 20.202,24.384 20.257,24.429 L20.257,20.974 L19.262,20.974 C19.229,20.812 19.103,20.686 18.941,20.653 C18.914,20.647 18.886,20.645 18.859,20.645 C18.667,20.645 18.496,20.779 18.456,20.974 z M18.612,21.056 C18.612,20.92 18.723,20.809 18.859,20.809 C18.995,20.809 19.106,20.92 19.106,21.056 C19.106,21.192 18.995,21.303 18.859,21.303 C18.723,21.303 18.612,21.192 18.612,21.056 z M11.877,20.974 C11.832,21.196 11.975,21.413 12.198,21.459 C12.42,21.504 12.638,21.361 12.683,21.138 L14.289,21.138 C14.277,21.083 14.265,21.029 14.254,20.974 L12.683,20.974 C12.65,20.812 12.524,20.686 12.362,20.653 C12.335,20.647 12.307,20.645 12.28,20.645 C12.088,20.645 11.917,20.779 11.877,20.974 z M12.033,21.056 C12.033,20.92 12.144,20.809 12.28,20.809 C12.416,20.809 12.527,20.92 12.527,21.056 C12.527,21.192 12.416,21.303 12.28,21.303 C12.144,21.303 12.033,21.192 12.033,21.056 z M32.025,21.74 C31.997,21.83 31.966,21.92 31.935,22.01 L31.935,22.289 L31.831,22.289 C31.81,22.344 31.789,22.399 31.767,22.454 L32.099,22.454 L32.099,21.48 C32.077,21.568 32.052,21.654 32.025,21.74 z M11.877,22.289 C11.832,22.512 11.975,22.729 12.198,22.775 C12.42,22.82 12.638,22.676 12.683,22.454 L14.22,22.454 L15.054,23.288 C14.987,23.149 14.924,23.007 14.863,22.864 L14.288,22.289 L12.683,22.289 C12.65,22.128 12.524,22.002 12.362,21.969 C12.335,21.963 12.307,21.96 12.28,21.96 C12.088,21.96 11.917,22.095 11.877,22.289 z M12.033,22.372 C12.033,22.235 12.144,22.125 12.28,22.125 C12.416,22.125 12.527,22.235 12.527,22.372 C12.527,22.508 12.416,22.618 12.28,22.618 C12.144,22.618 12.033,22.508 12.033,22.372 z M30.701,24.444 C30.674,24.485 30.647,24.526 30.619,24.566 L30.619,27.717 L34.566,27.717 L34.566,31.5 L34.731,31.5 L34.731,27.553 L30.783,27.553 L30.783,24.32 C30.756,24.361 30.728,24.403 30.701,24.444 z M31.614,24.921 C31.569,25.144 31.712,25.361 31.935,25.406 C32.157,25.452 32.375,25.308 32.42,25.086 L35.882,25.086 L35.882,24.921 L32.42,24.921 C32.387,24.76 32.261,24.633 32.099,24.6 C32.072,24.595 32.044,24.592 32.017,24.592 C31.825,24.592 31.654,24.726 31.614,24.921 z M31.77,25.003 C31.77,24.867 31.881,24.757 32.017,24.757 C32.153,24.757 32.264,24.867 32.264,25.003 C32.264,25.14 32.153,25.25 32.017,25.25 C31.881,25.25 31.77,25.14 31.77,25.003 z M21.088,24.921 L20.909,24.921 C20.993,24.969 21.082,25.012 21.162,25.066 C21.207,25.097 21.254,25.162 21.254,25.211 C21.254,25.254 21.254,25.297 21.254,25.34 C21.3,25.371 21.352,25.395 21.408,25.406 C21.631,25.452 21.848,25.308 21.893,25.086 C21.939,24.863 21.795,24.646 21.573,24.6 C21.545,24.595 21.517,24.592 21.49,24.592 C21.299,24.592 21.127,24.726 21.088,24.921 z M21.244,25.003 C21.244,24.867 21.354,24.757 21.491,24.757 C21.627,24.757 21.737,24.867 21.737,25.003 C21.737,25.14 21.627,25.25 21.491,25.25 C21.354,25.25 21.244,25.14 21.244,25.003 z M14.509,24.921 L10.882,24.921 L10.882,25.086 L14.509,25.086 C14.542,25.247 14.668,25.373 14.829,25.406 C15.052,25.452 15.269,25.308 15.315,25.086 C15.36,24.863 15.216,24.646 14.994,24.6 C14.966,24.595 14.938,24.592 14.911,24.592 C14.72,24.592 14.549,24.726 14.509,24.921 z M14.665,25.003 C14.665,24.867 14.775,24.757 14.912,24.757 C15.048,24.757 15.158,24.867 15.158,25.003 C15.158,25.14 15.048,25.25 14.912,25.25 C14.775,25.25 14.665,25.14 14.665,25.003 z M16.145,26.237 L15.315,26.237 C15.282,26.075 15.156,25.949 14.994,25.916 C14.772,25.871 14.554,26.014 14.509,26.237 C14.464,26.459 14.607,26.677 14.83,26.722 C15.052,26.767 15.269,26.624 15.315,26.401 L16.31,26.401 L16.31,25.208 C16.296,25.192 16.283,25.177 16.27,25.161 C16.227,25.111 16.186,25.061 16.145,25.01 L16.145,26.237 z M14.665,26.319 C14.665,26.183 14.775,26.072 14.912,26.072 C15.048,26.072 15.158,26.183 15.158,26.319 C15.158,26.455 15.048,26.566 14.912,26.566 C14.775,26.566 14.665,26.455 14.665,26.319 z M29.303,26.042 L29.303,29.033 L33.251,29.033 L33.251,31.5 L33.415,31.5 L33.415,28.868 L29.468,28.868 L29.468,25.891 C29.413,25.942 29.359,25.992 29.303,26.042 z M31.614,26.237 C31.569,26.459 31.712,26.677 31.935,26.722 C32.157,26.767 32.375,26.624 32.42,26.401 L35.882,26.401 L35.882,26.237 L32.42,26.237 C32.387,26.075 32.261,25.949 32.099,25.916 C32.072,25.911 32.044,25.908 32.017,25.908 C31.825,25.908 31.654,26.042 31.614,26.237 z M31.77,26.319 C31.77,26.183 31.881,26.072 32.017,26.072 C32.153,26.072 32.264,26.183 32.264,26.319 C32.264,26.455 32.153,26.566 32.017,26.566 C31.881,26.566 31.77,26.455 31.77,26.319 z M21.257,26.237 C21.257,26.292 21.257,26.346 21.257,26.401 L25.185,26.401 C25.185,26.346 25.185,26.292 25.185,26.237 L21.257,26.237 z M10.882,26.237 L10.882,26.401 L13.514,26.401 L13.514,31.5 L13.678,31.5 L13.678,26.319 L13.678,26.237 L10.882,26.237 z M17.461,27.553 L15.315,27.553 C15.282,27.391 15.156,27.265 14.994,27.232 C14.772,27.187 14.554,27.33 14.509,27.553 C14.464,27.775 14.607,27.992 14.83,28.038 C15.052,28.083 15.269,27.94 15.315,27.717 L17.626,27.717 L17.626,26.482 C17.57,26.439 17.515,26.395 17.461,26.35 L17.461,27.553 z M14.665,27.635 C14.665,27.499 14.775,27.388 14.912,27.388 C15.048,27.388 15.158,27.499 15.158,27.635 C15.158,27.771 15.048,27.882 14.912,27.882 C14.775,27.882 14.665,27.771 14.665,27.635 z M18.777,27.717 L19.788,27.717 C19.661,27.666 19.536,27.611 19.413,27.553 L18.941,27.553 L18.941,27.312 C18.886,27.283 18.831,27.253 18.777,27.223 L18.777,27.717 z M27.667,27.553 L27.039,27.553 C26.906,27.61 26.771,27.665 26.635,27.717 L27.667,27.717 C27.7,27.879 27.826,28.005 27.987,28.038 C28.21,28.083 28.427,27.94 28.472,27.717 C28.518,27.495 28.374,27.277 28.152,27.232 C28.124,27.226 28.096,27.224 28.069,27.224 C27.878,27.224 27.706,27.358 27.667,27.553 z M27.823,27.635 C27.823,27.499 27.933,27.388 28.07,27.388 C28.206,27.388 28.316,27.499 28.316,27.635 C28.316,27.771 28.206,27.882 28.07,27.882 C27.933,27.882 27.823,27.771 27.823,27.635 z M21.257,27.553 C21.257,27.607 21.257,27.662 21.257,27.717 L25.185,27.717 L25.185,27.553 L21.257,27.553 z M10.882,27.553 L10.882,31.35 C10.882,31.349 10.882,31.349 10.882,31.349 C11.011,31.304 11.152,31.372 11.197,31.5 L11.367,31.5 C11.334,31.338 11.208,31.212 11.047,31.179 L11.047,27.717 L12.198,27.717 L12.198,31.5 L12.362,31.5 L12.362,27.553 L10.882,27.553 z M27.667,28.868 L17.626,28.868 L17.461,28.868 L17.461,31.5 L17.626,31.5 L17.626,29.033 L27.667,29.033 C27.7,29.194 27.826,29.321 27.987,29.354 C28.21,29.399 28.427,29.255 28.472,29.033 C28.518,28.81 28.374,28.593 28.152,28.548 C28.124,28.542 28.096,28.539 28.069,28.539 C27.878,28.539 27.706,28.674 27.667,28.868 z M27.823,28.951 C27.823,28.814 27.933,28.704 28.07,28.704 C28.206,28.704 28.316,28.814 28.316,28.951 C28.316,29.087 28.206,29.197 28.07,29.197 C27.933,29.197 27.823,29.087 27.823,28.951 z M14.829,28.868 L14.829,31.5 L14.994,31.5 L14.994,29.033 L16.145,29.033 L16.145,29.864 C15.984,29.896 15.858,30.023 15.825,30.184 C15.779,30.407 15.923,30.624 16.145,30.669 C16.368,30.715 16.585,30.571 16.63,30.349 C16.676,30.126 16.532,29.909 16.31,29.864 L16.31,28.868 L14.829,28.868 z M15.981,30.266 C15.981,30.13 16.091,30.02 16.228,30.02 C16.364,30.02 16.474,30.13 16.474,30.266 C16.474,30.403 16.364,30.513 16.228,30.513 C16.091,30.513 15.981,30.403 15.981,30.266 z M28.982,30.184 L18.777,30.184 L18.777,31.5 L18.941,31.5 L18.941,30.349 L28.982,30.349 C29.015,30.51 29.142,30.636 29.303,30.669 C29.526,30.715 29.743,30.571 29.788,30.349 C29.834,30.126 29.69,29.909 29.468,29.864 C29.44,29.858 29.412,29.855 29.385,29.855 C29.194,29.855 29.022,29.989 28.982,30.184 z M29.139,30.266 C29.139,30.13 29.249,30.02 29.385,30.02 C29.522,30.02 29.632,30.13 29.632,30.266 C29.632,30.403 29.522,30.513 29.385,30.513 C29.249,30.513 29.139,30.403 29.139,30.266 z M30.619,30.184 L30.619,31.5 L30.783,31.5 L30.783,30.349 L31.935,30.349 L31.935,31.5 L32.099,31.5 L32.099,30.266 L32.099,30.184 L30.619,30.184 z M19.772,31.5 L19.942,31.5 C19.967,31.429 20.022,31.374 20.093,31.349 C20.222,31.304 20.362,31.372 20.408,31.5 L20.578,31.5 C20.545,31.338 20.419,31.212 20.257,31.179 C20.229,31.173 20.202,31.171 20.174,31.171 C19.983,31.171 19.812,31.305 19.772,31.5 z M35.561,31.5 L35.732,31.5 C35.756,31.43 35.812,31.374 35.882,31.35 L35.882,31.179 C35.72,31.212 35.594,31.338 35.561,31.5 z" fill="#C4C4C4"/>
      </g>
    </g>
  </g>
</svg>
